<svg xmlns="http://www.w3.org/2000/svg" width="402" height="383" viewBox="0 0 402 383">
<g fill="black" stroke="none">
<path d="M 55.0,28.5 L 54.5,27.0 L 55.5,26.0 L 56.5,25.0 L 57.5,24.0 L 58.5,24.0 L 58.0,25.5 L 57.0,26.5 L 56.0,27.5 L 55.0,28.5 Z"/>
<path d="M 348.0,30.5 L 347.0,29.5 L 346.0,28.5 L 345.0,27.5 L 344.5,26.0 L 345.5,26.0 L 346.5,27.0 L 347.5,28.0 L 348.5,29.0 L 348.0,30.5 Z"/>
<path d="M 51.0,33.5 L 50.5,32.0 L 51.5,31.0 L 52.5,30.0 L 53.5,30.0 L 53.0,31.5 L 52.0,32.5 L 51.0,33.5 Z"/>
<path d="M 354.0,38.5 L 353.5,37.0 L 352.5,36.0 L 351.5,35.0 L 350.5,34.0 L 349.5,33.0 L 349.0,31.5 L 349.0,30.5 L 350.5,31.0 L 351.0,32.5 L 352.0,33.5 L 353.0,34.5 L 354.0,35.5 L 354.5,37.0 L 354.0,38.5 Z"/>
<path d="M 47.0,38.5 L 46.5,37.0 L 47.5,36.0 L 48.5,35.0 L 49.5,34.0 L 50.5,34.0 L 50.0,35.5 L 49.0,36.5 L 48.0,37.5 L 47.0,38.5 Z"/>
<path d="M 42.0,45.5 L 41.5,44.0 L 42.5,43.0 L 43.0,41.5 L 44.0,40.5 L 45.0,39.5 L 46.0,38.5 L 46.5,40.0 L 45.5,41.0 L 44.5,42.0 L 44.0,43.5 L 43.0,44.5 L 42.0,45.5 Z"/>
<path d="M 147.0,280.5 L 145.0,280.5 L 143.0,280.5 L 141.0,280.5 L 139.0,280.5 L 137.0,280.5 L 135.0,280.5 L 133.0,280.5 L 131.0,280.5 L 129.0,280.5 L 127.0,280.5 L 125.0,280.5 L 123.0,280.5 L 121.5,280.0 L 120.0,279.5 L 118.0,279.5 L 116.0,279.5 L 114.0,279.5 L 112.5,279.0 L 111.0,278.5 L 109.0,278.5 L 107.0,278.5 L 106.0,277.5 L 104.0,277.5 L 102.5,277.0 L 101.0,276.5 L 99.5,276.0 L 98.0,275.5 L 96.0,275.5 L 95.0,274.5 L 93.5,274.0 L 92.0,273.5 L 90.5,273.0 L 89.0,272.5 L 87.5,272.0 L 86.0,271.5 L 85.0,270.5 L 84.0,269.5 L 82.5,269.0 L 81.0,268.5 L 80.0,267.5 L 79.0,266.5 L 77.5,266.0 L 76.5,265.0 L 75.5,264.0 L 74.5,263.0 L 73.5,262.0 L 72.0,261.5 L 71.5,260.0 L 70.5,259.0 L 69.5,258.0 L 68.5,257.0 L 67.5,256.0 L 67.0,254.5 L 66.0,253.5 L 65.5,252.0 L 64.5,251.0 L 64.5,249.0 L 63.5,248.0 L 63.5,246.0 L 62.5,245.0 L 62.5,243.0 L 62.5,241.0 L 62.5,239.0 L 62.5,237.0 L 62.5,235.0 L 62.5,233.0 L 63.5,232.0 L 63.5,230.0 L 64.0,228.5 L 64.5,227.0 L 65.0,225.5 L 65.5,224.0 L 66.5,223.0 L 67.0,221.5 L 67.5,220.0 L 68.5,219.0 L 69.0,217.5 L 70.0,216.5 L 71.0,215.5 L 71.5,214.0 L 72.5,213.0 L 73.5,212.0 L 74.5,211.0 L 75.5,210.0 L 76.5,209.0 L 77.5,208.0 L 76.5,207.0 L 75.5,206.0 L 74.0,205.5 L 73.0,204.5 L 72.0,203.5 L 70.5,203.0 L 69.5,202.0 L 68.0,201.5 L 67.0,200.5 L 66.0,199.5 L 65.0,198.5 L 63.5,198.0 L 62.5,197.0 L 61.0,196.5 L 60.0,195.5 L 59.0,194.5 L 58.0,193.5 L 56.5,193.0 L 55.5,192.0 L 54.5,191.0 L 53.5,190.0 L 53.0,188.5 L 52.0,187.5 L 51.5,186.0 L 50.5,185.0 L 50.5,183.0 L 50.5,181.0 L 50.5,179.0 L 51.0,177.5 L 51.5,176.0 L 52.5,175.0 L 53.5,174.0 L 54.5,173.0 L 55.5,172.0 L 57.0,171.5 L 58.0,170.5 L 59.0,169.5 L 61.0,169.5 L 62.0,168.5 L 64.0,168.5 L 65.0,167.5 L 67.0,167.5 L 69.0,167.5 L 70.5,167.0 L 72.0,166.5 L 74.0,166.5 L 76.0,166.5 L 78.0,166.5 L 80.0,166.5 L 81.5,167.0 L 83.0,167.5 L 85.0,167.5 L 86.5,168.0 L 88.0,168.5 L 90.0,168.5 L 91.0,169.5 L 93.0,169.5 L 94.5,170.0 L 96.0,170.5 L 97.5,170.0 L 98.0,168.5 L 98.5,167.0 L 99.5,166.0 L 98.0,165.5 L 98.0,164.5 L 100.0,164.5 L 101.0,163.5 L 102.0,162.5 L 103.0,161.5 L 104.0,160.5 L 105.5,160.0 L 106.5,159.0 L 108.0,158.5 L 109.0,157.5 L 110.5,157.0 L 112.0,156.5 L 113.5,156.0 L 115.0,155.5 L 117.0,155.5 L 119.0,155.5 L 120.0,154.5 L 120.0,153.5 L 119.0,154.5 L 117.5,154.0 L 116.5,153.0 L 117.5,152.0 L 119.0,151.5 L 119.5,150.0 L 120.5,150.0 L 121.0,151.5 L 121.5,150.0 L 121.5,148.0 L 120.5,147.0 L 121.0,145.5 L 122.0,146.5 L 122.5,145.0 L 122.5,143.0 L 121.0,142.5 L 119.5,142.0 L 118.5,141.0 L 117.0,140.5 L 115.0,140.5 L 113.5,140.0 L 112.5,139.0 L 111.5,138.0 L 112.0,136.5 L 112.5,135.0 L 114.0,134.5 L 116.0,134.5 L 118.0,134.5 L 120.0,134.5 L 122.0,134.5 L 124.0,134.5 L 124.5,133.0 L 124.5,131.0 L 125.5,130.0 L 125.5,128.0 L 126.0,126.5 L 126.5,125.0 L 127.0,123.5 L 127.5,122.0 L 127.5,120.0 L 128.5,119.0 L 128.5,117.0 L 129.5,116.0 L 130.0,114.5 L 130.5,113.0 L 131.5,112.0 L 132.0,110.5 L 132.5,109.0 L 133.5,108.0 L 134.0,106.5 L 134.5,105.0 L 135.5,104.0 L 136.5,103.0 L 137.0,101.5 L 137.5,100.0 L 136.5,99.0 L 138.0,98.5 L 139.5,98.0 L 140.5,97.0 L 141.0,95.5 L 142.0,94.5 L 143.0,93.5 L 144.0,92.5 L 145.0,91.5 L 146.0,90.5 L 147.0,89.5 L 148.0,88.5 L 149.0,87.5 L 150.0,86.5 L 151.0,85.5 L 152.0,84.5 L 153.0,83.5 L 154.0,82.5 L 155.0,81.5 L 156.5,81.0 L 158.0,80.5 L 159.0,79.5 L 160.0,78.5 L 161.5,78.0 L 162.5,77.0 L 164.0,76.5 L 165.0,75.5 L 166.5,75.0 L 168.0,74.5 L 169.0,73.5 L 170.5,73.0 L 172.0,72.5 L 173.0,71.5 L 175.0,71.5 L 176.0,70.5 L 178.0,70.5 L 179.0,69.5 L 181.0,69.5 L 182.5,69.0 L 184.0,68.5 L 186.0,68.5 L 187.5,68.0 L 189.0,67.5 L 191.0,67.5 L 191.5,66.0 L 190.5,65.0 L 190.0,63.5 L 189.5,62.0 L 188.5,61.0 L 188.0,59.5 L 187.5,58.0 L 186.5,57.0 L 185.5,56.0 L 184.5,55.0 L 183.5,54.0 L 183.5,52.0 L 184.0,50.5 L 185.5,50.0 L 187.0,49.5 L 188.5,50.0 L 189.5,51.0 L 190.5,52.0 L 191.5,53.0 L 192.5,54.0 L 193.5,55.0 L 194.0,56.5 L 195.0,57.5 L 195.5,59.0 L 196.5,60.0 L 197.0,61.5 L 197.5,60.0 L 197.5,58.0 L 197.5,56.0 L 197.5,54.0 L 198.5,53.0 L 198.5,51.0 L 198.5,49.0 L 198.5,47.0 L 198.5,45.0 L 199.0,43.5 L 200.0,42.5 L 201.0,41.5 L 203.0,41.5 L 204.0,42.5 L 204.5,44.0 L 205.5,45.0 L 204.5,46.0 L 204.5,48.0 L 204.5,50.0 L 205.5,51.0 L 205.0,52.5 L 204.5,54.0 L 204.5,56.0 L 204.5,58.0 L 204.5,60.0 L 205.5,60.0 L 206.5,59.0 L 207.0,57.5 L 208.0,56.5 L 209.0,55.5 L 209.0,54.5 L 207.0,54.5 L 206.5,53.0 L 207.5,52.0 L 209.0,51.5 L 209.5,53.0 L 211.0,53.5 L 212.0,52.5 L 213.0,51.5 L 214.0,50.5 L 215.0,49.5 L 217.0,49.5 L 218.5,50.0 L 219.0,51.5 L 219.5,53.0 L 219.0,54.5 L 218.0,55.5 L 217.0,56.5 L 216.0,57.5 L 215.0,58.5 L 214.0,59.5 L 213.5,61.0 L 212.5,62.0 L 211.5,63.0 L 211.0,64.5 L 210.0,65.5 L 209.5,67.0 L 211.0,67.5 L 212.5,68.0 L 214.0,68.5 L 216.0,68.5 L 217.0,69.5 L 219.0,69.5 L 220.5,70.0 L 222.0,70.5 L 223.5,71.0 L 225.0,71.5 L 226.5,72.0 L 228.0,72.5 L 229.0,73.5 L 231.0,73.5 L 232.0,74.5 L 233.0,75.5 L 234.5,76.0 L 236.0,76.5 L 237.0,77.5 L 238.5,78.0 L 239.5,79.0 L 241.0,79.5 L 242.0,80.5 L 243.0,81.5 L 244.5,82.0 L 245.5,83.0 L 246.5,84.0 L 247.5,85.0 L 248.5,85.0 L 250.0,84.5 L 250.0,85.5 L 250.0,86.5 L 251.0,87.5 L 252.0,88.5 L 253.0,89.5 L 254.0,90.5 L 255.0,91.5 L 255.5,93.0 L 256.5,94.0 L 257.5,95.0 L 258.5,96.0 L 259.5,97.0 L 260.0,98.5 L 261.0,99.5 L 262.0,100.5 L 262.5,102.0 L 263.5,103.0 L 264.0,104.5 L 265.0,105.5 L 265.5,107.0 L 266.5,108.0 L 267.0,109.5 L 267.5,111.0 L 268.5,112.0 L 269.0,113.5 L 269.5,115.0 L 270.5,116.0 L 270.5,118.0 L 271.5,119.0 L 272.0,120.5 L 273.0,119.5 L 274.0,120.5 L 274.5,122.0 L 273.0,122.5 L 272.5,124.0 L 273.0,125.5 L 273.5,127.0 L 274.0,128.5 L 274.5,130.0 L 274.5,132.0 L 276.0,132.5 L 277.0,131.5 L 278.5,132.0 L 280.0,132.5 L 280.0,133.5 L 280.0,134.5 L 282.0,134.5 L 284.0,134.5 L 286.0,134.5 L 287.0,135.5 L 287.5,137.0 L 287.0,138.5 L 286.0,139.5 L 285.0,140.5 L 283.0,140.5 L 282.0,141.5 L 281.0,142.5 L 279.5,142.0 L 279.5,140.0 L 278.5,140.0 L 277.5,140.0 L 276.5,140.0 L 276.5,142.0 L 276.5,144.0 L 277.5,145.0 L 277.5,147.0 L 278.0,148.5 L 279.0,147.5 L 279.5,149.0 L 278.5,150.0 L 278.5,152.0 L 279.0,153.5 L 280.5,154.0 L 282.0,154.5 L 283.0,155.5 L 284.5,156.0 L 285.5,157.0 L 286.5,158.0 L 287.5,159.0 L 288.5,160.0 L 289.5,161.0 L 290.5,162.0 L 291.5,163.0 L 292.0,164.5 L 292.5,166.0 L 293.0,167.5 L 293.5,169.0 L 294.5,170.0 L 295.0,171.5 L 296.0,172.5 L 297.5,172.0 L 298.5,171.0 L 299.5,170.0 L 300.0,168.5 L 301.0,167.5 L 302.0,166.5 L 302.5,165.0 L 303.5,164.0 L 304.0,162.5 L 304.5,161.0 L 305.5,160.0 L 306.5,159.0 L 307.0,157.5 L 308.0,156.5 L 308.5,155.0 L 309.5,154.0 L 310.0,152.5 L 311.0,151.5 L 311.5,150.0 L 312.5,149.0 L 313.5,148.0 L 314.5,147.0 L 315.5,146.0 L 316.5,145.0 L 317.5,144.0 L 318.5,143.0 L 320.0,142.5 L 321.0,141.5 L 322.5,141.0 L 324.0,140.5 L 326.0,140.5 L 328.0,140.5 L 330.0,140.5 L 331.5,141.0 L 333.0,141.5 L 334.0,142.5 L 335.0,143.5 L 335.5,145.0 L 336.5,146.0 L 336.5,148.0 L 336.5,150.0 L 336.5,152.0 L 336.5,154.0 L 336.0,155.5 L 335.5,157.0 L 335.5,159.0 L 335.5,161.0 L 335.5,163.0 L 335.5,165.0 L 335.0,166.5 L 334.5,168.0 L 334.5,170.0 L 334.5,172.0 L 334.5,174.0 L 334.0,175.5 L 333.5,177.0 L 333.5,179.0 L 333.0,180.5 L 332.5,182.0 L 332.5,184.0 L 333.5,185.0 L 334.5,186.0 L 335.5,187.0 L 336.5,188.0 L 337.5,189.0 L 338.0,190.5 L 338.5,192.0 L 338.5,194.0 L 340.0,194.5 L 341.0,195.5 L 343.0,195.5 L 344.0,196.5 L 345.5,197.0 L 347.0,197.5 L 348.0,198.5 L 350.0,198.5 L 351.0,199.5 L 352.5,200.0 L 354.0,200.5 L 355.0,201.5 L 356.0,202.5 L 357.5,203.0 L 359.0,203.5 L 360.0,204.5 L 361.0,205.5 L 362.0,206.5 L 363.0,207.5 L 363.5,209.0 L 364.5,210.0 L 365.0,211.5 L 365.5,213.0 L 365.0,214.5 L 364.5,216.0 L 363.5,217.0 L 363.0,218.5 L 362.0,219.5 L 361.0,220.5 L 360.0,221.5 L 358.5,222.0 L 357.0,222.5 L 356.0,223.5 L 354.5,224.0 L 353.0,224.5 L 351.0,224.5 L 350.0,225.5 L 348.0,225.5 L 346.0,225.5 L 344.0,225.5 L 342.0,225.5 L 340.0,225.5 L 339.0,224.5 L 337.0,224.5 L 335.0,224.5 L 334.0,223.5 L 332.0,223.5 L 330.5,223.0 L 329.0,222.5 L 327.0,222.5 L 326.0,221.5 L 324.0,221.5 L 322.5,222.0 L 321.5,223.0 L 320.5,224.0 L 319.0,224.5 L 318.0,225.5 L 317.0,226.5 L 316.0,227.5 L 314.5,228.0 L 313.5,229.0 L 312.5,230.0 L 311.0,230.5 L 310.0,231.5 L 309.0,232.5 L 307.5,233.0 L 306.0,233.5 L 305.0,234.5 L 304.0,235.5 L 302.5,236.0 L 301.0,236.5 L 300.0,237.5 L 299.0,238.5 L 297.5,239.0 L 296.5,240.0 L 298.0,240.5 L 299.5,241.0 L 301.0,241.5 L 302.0,242.5 L 303.5,243.0 L 305.0,243.5 L 306.5,244.0 L 308.0,244.5 L 309.0,245.5 L 310.5,246.0 L 312.0,246.5 L 313.0,247.5 L 314.5,248.0 L 316.0,248.5 L 317.0,249.5 L 318.5,250.0 L 319.5,251.0 L 321.0,251.5 L 322.0,252.5 L 323.0,253.5 L 324.0,254.5 L 325.0,255.5 L 325.5,257.0 L 326.5,258.0 L 326.5,260.0 L 326.5,262.0 L 326.5,264.0 L 325.5,265.0 L 324.5,266.0 L 324.0,267.5 L 323.0,268.5 L 321.5,269.0 L 320.5,270.0 L 319.0,270.5 L 318.0,271.5 L 316.5,272.0 L 315.0,272.5 L 314.0,273.5 L 312.0,273.5 L 311.0,274.5 L 309.0,274.5 L 308.0,275.5 L 306.0,275.5 L 304.5,276.0 L 303.0,276.5 L 301.0,276.5 L 299.0,276.5 L 297.0,276.5 L 296.0,277.5 L 294.0,277.5 L 292.0,277.5 L 290.0,277.5 L 288.0,277.5 L 286.0,277.5 L 285.0,276.5 L 283.0,276.5 L 281.0,276.5 L 279.0,276.5 L 277.5,276.0 L 276.0,275.5 L 274.0,275.5 L 272.0,275.5 L 270.5,275.0 L 269.0,274.5 L 267.0,274.5 L 265.0,274.5 L 264.0,273.5 L 262.0,273.5 L 260.0,273.5 L 259.0,272.5 L 257.0,272.5 L 255.0,272.5 L 254.0,271.5 L 252.0,271.5 L 250.5,271.0 L 249.0,270.5 L 247.0,270.5 L 245.5,270.0 L 244.0,269.5 L 242.0,269.5 L 240.5,269.0 L 239.0,268.5 L 237.0,268.5 L 236.0,269.5 L 234.0,269.5 L 234.0,268.5 L 235.5,268.0 L 234.0,267.5 L 232.5,267.0 L 231.0,266.5 L 229.0,266.5 L 228.0,265.5 L 226.0,265.5 L 224.0,265.5 L 222.5,266.0 L 221.0,266.5 L 219.0,266.5 L 218.0,267.5 L 216.0,267.5 L 215.0,268.5 L 213.0,268.5 L 211.5,269.0 L 210.0,269.5 L 208.0,269.5 L 207.0,270.5 L 205.0,270.5 L 203.0,270.5 L 202.0,271.5 L 200.0,271.5 L 198.5,272.0 L 197.0,272.5 L 195.0,272.5 L 194.0,273.5 L 192.0,273.5 L 190.0,273.5 L 188.5,274.0 L 187.0,274.5 L 185.0,274.5 L 183.5,275.0 L 182.0,275.5 L 180.0,275.5 L 178.5,276.0 L 177.0,276.5 L 175.0,276.5 L 173.0,276.5 L 172.0,277.5 L 170.0,277.5 L 168.0,277.5 L 166.5,278.0 L 165.0,278.5 L 163.0,278.5 L 161.0,278.5 L 159.0,278.5 L 158.0,279.5 L 156.0,279.5 L 154.0,279.5 L 152.0,279.5 L 150.0,279.5 L 148.0,279.5 L 147.0,280.5 Z"/>
<path d="M 0.0,174.5 L 0.5,173.0 L 0.5,171.0 L 1.0,169.5 L 1.0,168.5 L 0.5,167.0 L 1.0,165.5 L 1.5,164.0 L 1.0,162.5 L 0.5,161.0 L 0.5,159.0 L 1.0,157.5 L 1.5,156.0 L 0.5,155.0 L 1.5,154.0 L 1.5,152.0 L 1.5,150.0 L 1.5,148.0 L 1.5,146.0 L 1.5,144.0 L 1.5,142.0 L 2.5,141.0 L 2.5,139.0 L 2.5,137.0 L 3.5,136.0 L 3.5,134.0 L 3.5,132.0 L 3.5,130.0 L 4.5,129.0 L 5.0,127.5 L 5.5,126.0 L 5.5,124.0 L 5.5,122.0 L 6.5,121.0 L 6.5,119.0 L 7.5,118.0 L 7.5,116.0 L 7.5,114.0 L 8.0,112.5 L 9.5,112.0 L 9.5,110.0 L 9.5,108.0 L 10.0,106.5 L 11.0,105.5 L 11.5,104.0 L 12.0,102.5 L 12.5,101.0 L 12.5,99.0 L 13.5,98.0 L 14.0,96.5 L 14.5,95.0 L 14.5,93.0 L 15.5,92.0 L 16.0,90.5 L 17.0,89.5 L 17.5,88.0 L 18.0,86.5 L 18.5,85.0 L 18.5,83.0 L 19.5,82.0 L 20.5,81.0 L 21.5,80.0 L 22.0,78.5 L 23.0,77.5 L 23.0,76.5 L 23.0,75.5 L 23.5,74.0 L 24.0,72.5 L 25.0,71.5 L 26.0,70.5 L 26.5,69.0 L 27.0,67.5 L 28.0,66.5 L 28.5,65.0 L 29.5,64.0 L 30.5,63.0 L 31.0,61.5 L 31.5,60.0 L 32.0,58.5 L 33.0,57.5 L 33.5,56.0 L 34.5,55.0 L 35.0,53.5 L 35.5,52.0 L 36.0,50.5 L 37.0,49.5 L 38.0,48.5 L 39.0,47.5 L 40.0,46.5 L 41.0,45.5 L 41.5,47.0 L 40.5,48.0 L 40.0,49.5 L 39.0,50.5 L 38.5,52.0 L 37.5,53.0 L 37.0,54.5 L 36.0,55.5 L 35.5,57.0 L 34.5,58.0 L 34.0,59.5 L 33.5,61.0 L 32.5,62.0 L 32.0,63.5 L 31.0,64.5 L 30.5,66.0 L 29.5,67.0 L 29.0,68.5 L 28.5,70.0 L 27.5,71.0 L 27.0,72.5 L 26.5,74.0 L 25.5,75.0 L 25.0,76.5 L 24.5,78.0 L 24.0,79.5 L 23.5,81.0 L 22.5,82.0 L 22.5,84.0 L 21.5,85.0 L 21.0,86.5 L 20.5,88.0 L 20.0,89.5 L 19.5,91.0 L 18.5,92.0 L 18.5,94.0 L 17.5,95.0 L 17.5,97.0 L 16.5,98.0 L 16.5,100.0 L 16.0,101.5 L 15.5,103.0 L 15.0,104.5 L 14.5,106.0 L 14.0,107.5 L 13.5,109.0 L 13.5,111.0 L 12.5,112.0 L 12.5,114.0 L 12.0,115.5 L 11.5,117.0 L 11.5,119.0 L 10.5,120.0 L 10.5,122.0 L 10.5,124.0 L 10.0,125.5 L 9.5,127.0 L 9.5,129.0 L 9.5,131.0 L 8.5,132.0 L 8.5,134.0 L 8.5,136.0 L 8.5,138.0 L 7.5,139.0 L 7.5,141.0 L 7.5,143.0 L 7.5,145.0 L 7.5,147.0 L 7.5,149.0 L 6.5,150.0 L 6.5,152.0 L 6.5,154.0 L 6.5,156.0 L 6.5,158.0 L 6.5,160.0 L 6.5,162.0 L 6.5,164.0 L 6.5,166.0 L 6.5,168.0 L 6.5,170.0 L 6.5,172.0 L 6.5,174.0 L 6.5,176.0 L 6.5,178.0 L 6.5,180.0 L 7.5,181.0 L 7.5,183.0 L 7.5,185.0 L 7.5,187.0 L 7.5,189.0 L 8.5,190.0 L 8.5,192.0 L 8.5,194.0 L 8.5,196.0 L 9.5,197.0 L 9.5,199.0 L 9.5,201.0 L 10.5,202.0 L 10.5,204.0 L 10.5,206.0 L 11.5,207.0 L 11.5,209.0 L 11.5,211.0 L 12.5,212.0 L 12.5,214.0 L 13.0,215.5 L 13.5,217.0 L 14.0,218.5 L 14.5,220.0 L 14.5,222.0 L 15.5,223.0 L 15.5,225.0 L 16.0,226.5 L 16.5,228.0 L 17.0,229.5 L 17.5,231.0 L 18.0,232.5 L 18.5,234.0 L 19.5,235.0 L 19.5,237.0 L 20.5,238.0 L 20.5,240.0 L 21.5,241.0 L 22.0,242.5 L 22.5,244.0 L 23.0,245.5 L 23.5,247.0 L 24.5,248.0 L 25.0,249.5 L 25.5,251.0 L 26.5,252.0 L 27.0,253.5 L 27.5,255.0 L 28.5,256.0 L 28.5,258.0 L 29.5,259.0 L 30.0,260.5 L 30.5,262.0 L 31.5,263.0 L 32.5,264.0 L 33.0,265.5 L 33.5,267.0 L 34.5,268.0 L 35.0,269.5 L 35.5,271.0 L 36.5,272.0 L 37.5,273.0 L 38.0,274.5 L 39.0,275.5 L 39.5,277.0 L 40.5,278.0 L 41.0,279.5 L 42.0,280.5 L 42.5,282.0 L 43.5,283.0 L 44.5,284.0 L 45.0,285.5 L 46.0,286.5 L 47.0,287.5 L 47.5,289.0 L 48.5,290.0 L 49.5,291.0 L 50.5,292.0 L 51.0,293.5 L 52.0,294.5 L 53.0,295.5 L 53.5,297.0 L 54.5,298.0 L 55.5,299.0 L 56.5,300.0 L 57.5,301.0 L 58.5,302.0 L 59.0,303.5 L 60.0,304.5 L 61.0,305.5 L 62.0,306.5 L 63.0,307.5 L 64.0,308.5 L 65.0,309.5 L 66.0,310.5 L 67.0,311.5 L 68.0,312.5 L 69.0,313.5 L 70.0,314.5 L 71.0,315.5 L 72.0,316.5 L 73.0,317.5 L 74.0,318.5 L 75.5,319.0 L 76.5,320.0 L 77.5,321.0 L 78.5,322.0 L 79.5,323.0 L 80.5,324.0 L 82.0,324.5 L 83.0,325.5 L 84.0,326.5 L 85.0,327.5 L 86.0,328.5 L 87.5,329.0 L 88.5,330.0 L 89.5,331.0 L 91.0,331.5 L 92.0,332.5 L 93.0,333.5 L 94.5,334.0 L 95.5,335.0 L 97.0,335.5 L 98.0,336.5 L 99.0,337.5 L 100.5,338.0 L 101.5,339.0 L 103.0,339.5 L 104.0,340.5 L 105.0,341.5 L 106.5,342.0 L 108.0,342.5 L 109.0,343.5 L 110.5,344.0 L 111.5,345.0 L 113.0,345.5 L 114.0,346.5 L 115.5,347.0 L 117.0,347.5 L 118.0,348.5 L 119.5,349.0 L 121.0,349.5 L 122.0,350.5 L 124.0,350.5 L 125.0,351.5 L 126.5,352.0 L 128.0,352.5 L 129.0,353.5 L 130.5,354.0 L 132.0,354.5 L 133.5,355.0 L 135.0,355.5 L 136.0,356.5 L 138.0,356.5 L 139.0,357.5 L 141.0,357.5 L 142.0,358.5 L 144.0,358.5 L 145.0,359.5 L 147.0,359.5 L 148.0,360.5 L 150.0,360.5 L 151.5,361.0 L 153.0,361.5 L 154.5,362.0 L 156.0,362.5 L 158.0,362.5 L 159.0,363.5 L 161.0,363.5 L 163.0,363.5 L 164.0,364.5 L 166.0,364.5 L 168.0,364.5 L 169.0,365.5 L 171.0,365.5 L 173.0,365.5 L 174.5,366.0 L 176.0,366.5 L 178.0,366.5 L 180.0,366.5 L 182.0,366.5 L 183.0,367.5 L 185.0,367.5 L 187.0,367.5 L 189.0,367.5 L 191.0,367.5 L 193.0,367.5 L 195.0,367.5 L 196.0,368.5 L 198.0,368.5 L 200.0,368.5 L 202.0,368.5 L 204.0,368.5 L 205.0,367.5 L 207.0,367.5 L 209.0,367.5 L 211.0,367.5 L 213.0,367.5 L 215.0,367.5 L 217.0,367.5 L 219.0,367.5 L 220.0,366.5 L 222.0,366.5 L 224.0,366.5 L 226.0,366.5 L 227.5,366.0 L 229.0,365.5 L 231.0,365.5 L 233.0,365.5 L 234.0,364.5 L 236.0,364.5 L 238.0,364.5 L 239.0,363.5 L 241.0,363.5 L 243.0,363.5 L 244.0,362.5 L 246.0,362.5 L 247.5,362.0 L 249.0,361.5 L 250.5,361.0 L 252.0,360.5 L 254.0,360.5 L 255.0,359.5 L 257.0,359.5 L 258.0,358.5 L 260.0,358.5 L 261.0,357.5 L 263.0,357.5 L 264.0,356.5 L 266.0,356.5 L 267.0,355.5 L 268.5,355.0 L 270.0,354.5 L 271.5,354.0 L 273.0,353.5 L 274.0,352.5 L 276.0,352.5 L 277.0,351.5 L 278.5,351.0 L 280.0,350.5 L 281.0,349.5 L 282.5,349.0 L 284.0,348.5 L 285.0,347.5 L 286.5,347.0 L 288.0,346.5 L 289.0,345.5 L 290.5,345.0 L 292.0,344.5 L 293.0,343.5 L 294.0,342.5 L 295.5,342.0 L 297.0,341.5 L 298.0,340.5 L 299.5,340.0 L 300.5,339.0 L 302.0,338.5 L 303.0,337.5 L 304.0,336.5 L 305.5,336.0 L 306.5,335.0 L 308.0,334.5 L 309.0,333.5 L 310.0,332.5 L 311.0,331.5 L 312.5,331.0 L 313.5,330.0 L 315.0,329.5 L 316.0,328.5 L 317.0,327.5 L 318.0,326.5 L 319.0,325.5 L 320.5,325.0 L 321.5,324.0 L 322.5,323.0 L 323.5,322.0 L 324.5,321.0 L 325.5,320.0 L 327.0,319.5 L 328.0,318.5 L 329.0,317.5 L 330.0,316.5 L 331.0,315.5 L 332.0,314.5 L 333.0,313.5 L 334.0,312.5 L 335.0,311.5 L 336.0,310.5 L 337.0,309.5 L 338.0,308.5 L 339.0,307.5 L 340.0,306.5 L 341.0,305.5 L 342.0,304.5 L 342.5,303.0 L 343.5,302.0 L 344.5,301.0 L 345.5,300.0 L 346.5,299.0 L 347.5,298.0 L 348.5,297.0 L 349.0,295.5 L 350.0,294.5 L 351.0,293.5 L 351.5,292.0 L 352.5,291.0 L 353.5,290.0 L 354.5,289.0 L 355.0,287.5 L 356.0,286.5 L 357.0,285.5 L 357.5,284.0 L 358.5,283.0 L 359.5,282.0 L 360.0,280.5 L 361.0,279.5 L 361.5,278.0 L 362.5,277.0 L 363.5,276.0 L 364.0,274.5 L 364.5,273.0 L 365.5,272.0 L 366.5,271.0 L 367.0,269.5 L 367.5,268.0 L 368.5,267.0 L 369.0,265.5 L 370.0,264.5 L 370.5,263.0 L 371.5,262.0 L 372.0,260.5 L 372.5,259.0 L 373.5,258.0 L 374.0,256.5 L 374.5,255.0 L 375.5,254.0 L 376.0,252.5 L 376.5,251.0 L 377.5,250.0 L 377.5,248.0 L 378.5,247.0 L 379.0,245.5 L 379.5,244.0 L 380.0,242.5 L 380.5,241.0 L 381.5,240.0 L 381.5,238.0 L 382.5,237.0 L 382.5,235.0 L 383.5,234.0 L 384.0,232.5 L 384.5,231.0 L 384.5,229.0 L 385.5,228.0 L 385.5,226.0 L 386.5,225.0 L 386.5,223.0 L 387.5,222.0 L 387.5,220.0 L 388.0,218.5 L 388.5,217.0 L 388.5,215.0 L 389.5,214.0 L 389.5,212.0 L 390.0,210.5 L 390.5,209.0 L 390.5,207.0 L 391.0,205.5 L 391.5,204.0 L 391.5,202.0 L 392.0,200.5 L 392.5,199.0 L 392.5,197.0 L 392.5,195.0 L 393.5,194.0 L 393.5,192.0 L 393.5,190.0 L 393.5,188.0 L 394.0,186.5 L 394.5,185.0 L 394.5,183.0 L 394.5,181.0 L 394.5,179.0 L 394.5,177.0 L 395.0,175.5 L 395.5,174.0 L 395.5,172.0 L 395.5,170.0 L 395.5,168.0 L 395.5,166.0 L 395.5,164.0 L 395.5,162.0 L 395.5,160.0 L 395.5,158.0 L 395.0,156.5 L 394.5,155.0 L 394.5,153.0 L 394.5,151.0 L 394.5,149.0 L 394.5,147.0 L 394.5,145.0 L 394.5,143.0 L 394.0,141.5 L 393.5,140.0 L 393.5,138.0 L 393.5,136.0 L 393.5,134.0 L 392.5,133.0 L 392.5,131.0 L 392.5,129.0 L 392.5,127.0 L 391.5,126.0 L 391.5,124.0 L 391.5,122.0 L 390.5,121.0 L 390.5,119.0 L 390.5,117.0 L 389.5,116.0 L 389.5,114.0 L 388.5,113.0 L 388.5,111.0 L 388.5,109.0 L 387.5,108.0 L 387.5,106.0 L 386.5,105.0 L 386.5,103.0 L 386.0,101.5 L 385.5,100.0 L 385.0,98.5 L 384.5,97.0 L 384.0,95.5 L 383.5,94.0 L 383.0,92.5 L 382.5,91.0 L 381.5,90.0 L 381.5,88.0 L 380.5,87.0 L 380.0,85.5 L 379.5,84.0 L 379.0,82.5 L 378.5,81.0 L 377.5,80.0 L 377.0,78.5 L 376.5,77.0 L 376.0,75.5 L 375.5,74.0 L 374.5,73.0 L 374.0,71.5 L 373.5,70.0 L 372.5,69.0 L 372.0,67.5 L 371.5,66.0 L 370.5,65.0 L 370.0,63.5 L 369.5,62.0 L 368.5,61.0 L 368.0,59.5 L 367.0,58.5 L 366.5,57.0 L 365.5,56.0 L 365.0,54.5 L 364.0,53.5 L 363.5,52.0 L 362.5,51.0 L 362.0,49.5 L 361.0,48.5 L 360.5,47.0 L 359.5,46.0 L 358.5,45.0 L 359.0,43.5 L 360.0,44.5 L 361.0,45.5 L 361.5,47.0 L 362.5,48.0 L 363.5,49.0 L 364.5,50.0 L 365.0,51.5 L 365.5,53.0 L 366.5,54.0 L 368.0,54.5 L 368.5,56.0 L 368.5,58.0 L 369.5,59.0 L 370.0,60.5 L 371.0,61.5 L 371.5,63.0 L 372.5,64.0 L 373.0,65.5 L 374.0,66.5 L 375.0,67.5 L 376.0,68.5 L 376.5,70.0 L 377.0,71.5 L 377.5,73.0 L 378.5,74.0 L 379.0,75.5 L 380.0,76.5 L 380.5,78.0 L 380.5,80.0 L 381.5,81.0 L 381.5,83.0 L 382.5,84.0 L 383.5,85.0 L 384.0,86.5 L 384.5,88.0 L 384.5,90.0 L 386.0,90.5 L 386.5,92.0 L 387.5,93.0 L 388.0,94.5 L 388.5,96.0 L 389.5,97.0 L 388.5,98.0 L 388.5,100.0 L 389.5,101.0 L 390.0,102.5 L 390.5,104.0 L 391.0,105.5 L 392.0,106.5 L 392.5,108.0 L 392.5,110.0 L 393.0,111.5 L 393.5,113.0 L 393.5,115.0 L 394.5,116.0 L 394.5,118.0 L 394.5,120.0 L 395.5,121.0 L 395.5,123.0 L 396.0,124.5 L 396.5,126.0 L 397.0,127.5 L 397.5,129.0 L 397.5,131.0 L 397.5,133.0 L 398.0,134.5 L 398.5,136.0 L 398.5,138.0 L 398.5,140.0 L 398.5,142.0 L 399.5,143.0 L 400.0,144.5 L 400.0,145.5 L 400.0,146.5 L 400.0,147.5 L 399.5,149.0 L 400.5,150.0 L 400.5,152.0 L 400.5,154.0 L 400.5,156.0 L 400.5,158.0 L 400.5,160.0 L 401.0,161.5 Z"/>
<path d="M 257.5,135.0 L 259.0,134.5 L 261.0,134.5 L 263.0,134.5 L 264.5,134.0 L 263.0,133.5 L 263.0,132.5 L 264.0,131.5 L 266.0,131.5 L 267.0,132.5 L 267.0,133.5 L 265.5,134.0 L 267.0,134.5 L 268.5,134.0 L 268.0,132.5 L 267.5,131.0 L 267.5,129.0 L 266.5,128.0 L 266.5,126.0 L 265.5,125.0 L 265.5,123.0 L 264.5,123.0 L 264.0,124.5 L 263.0,123.5 L 262.5,122.0 L 262.5,120.0 L 263.5,120.0 L 264.0,121.5 L 264.5,120.0 L 263.5,119.0 L 263.0,117.5 L 262.5,116.0 L 262.0,114.5 L 261.5,113.0 L 260.5,112.0 L 260.0,110.5 L 259.5,109.0 L 258.5,108.0 L 258.0,106.5 L 257.0,105.5 L 256.5,104.0 L 255.5,103.0 L 254.5,102.0 L 253.5,101.0 L 253.0,99.5 L 252.0,98.5 L 251.0,97.5 L 250.0,96.5 L 249.0,95.5 L 248.0,94.5 L 247.0,93.5 L 246.0,92.5 L 245.0,91.5 L 244.0,90.5 L 243.0,89.5 L 241.5,89.0 L 240.5,88.0 L 239.5,87.0 L 238.5,86.0 L 237.0,85.5 L 236.0,84.5 L 235.0,83.5 L 233.5,83.0 L 232.0,82.5 L 231.0,81.5 L 229.5,81.0 L 228.0,80.5 L 227.0,79.5 L 225.5,79.0 L 224.0,78.5 L 222.5,78.0 L 221.0,77.5 L 219.5,77.0 L 218.0,76.5 L 216.0,76.5 L 215.0,75.5 L 213.0,75.5 L 211.5,75.0 L 210.0,74.5 L 208.0,74.5 L 206.0,74.5 L 204.0,74.5 L 202.0,74.5 L 200.0,74.5 L 198.0,74.5 L 197.0,73.5 L 196.0,74.5 L 194.0,74.5 L 192.0,74.5 L 190.0,74.5 L 188.5,75.0 L 187.0,75.5 L 185.0,75.5 L 184.0,76.5 L 182.0,76.5 L 180.5,77.0 L 179.0,77.5 L 177.5,78.0 L 176.0,78.5 L 174.5,79.0 L 173.0,79.5 L 172.0,80.5 L 170.5,81.0 L 169.0,81.5 L 168.0,82.5 L 166.5,83.0 L 165.0,83.5 L 164.0,84.5 L 162.5,85.0 L 161.5,86.0 L 160.5,87.0 L 159.5,88.0 L 158.0,88.5 L 157.0,89.5 L 156.0,90.5 L 155.0,91.5 L 153.5,92.0 L 152.5,93.0 L 151.5,94.0 L 150.5,95.0 L 150.0,96.5 L 149.0,97.5 L 148.0,98.5 L 147.0,99.5 L 146.0,100.5 L 145.5,102.0 L 144.5,103.0 L 143.5,104.0 L 142.5,105.0 L 142.0,106.5 L 141.5,108.0 L 140.5,109.0 L 139.5,110.0 L 139.0,111.5 L 138.5,113.0 L 137.5,114.0 L 137.0,115.5 L 136.5,117.0 L 136.0,118.5 L 135.5,120.0 L 134.5,121.0 L 135.0,122.5 L 136.0,121.5 L 136.5,123.0 L 135.5,124.0 L 134.5,124.0 L 133.5,124.0 L 133.5,126.0 L 132.5,127.0 L 132.5,129.0 L 132.5,131.0 L 131.5,132.0 L 133.0,132.5 L 135.0,132.5 L 136.5,133.0 L 135.0,133.5 L 135.0,134.5 L 137.0,134.5 L 139.0,134.5 L 141.0,134.5 L 143.0,134.5 L 144.0,133.5 L 144.5,132.0 L 145.5,131.0 L 146.0,129.5 L 146.5,128.0 L 147.5,127.0 L 148.5,126.0 L 149.0,124.5 L 150.0,123.5 L 151.0,122.5 L 152.5,122.0 L 153.5,121.0 L 155.0,120.5 L 156.0,119.5 L 157.5,119.0 L 159.0,118.5 L 160.5,118.0 L 162.0,117.5 L 164.0,117.5 L 166.0,117.5 L 168.0,117.5 L 170.0,117.5 L 171.5,118.0 L 173.0,118.5 L 174.5,119.0 L 176.0,119.5 L 177.0,120.5 L 178.5,121.0 L 179.5,122.0 L 180.5,123.0 L 182.0,123.5 L 183.0,124.5 L 183.5,126.0 L 184.5,127.0 L 185.5,128.0 L 186.0,129.5 L 186.5,131.0 L 187.5,132.0 L 188.0,133.5 L 188.5,135.0 L 189.5,135.0 L 190.5,134.0 L 192.0,133.5 L 193.5,133.0 L 195.0,132.5 L 197.0,132.5 L 198.5,132.0 L 200.0,131.5 L 201.0,132.5 L 203.0,132.5 L 205.0,132.5 L 206.0,133.5 L 208.0,133.5 L 209.0,134.5 L 210.5,134.0 L 211.5,133.0 L 212.0,131.5 L 212.5,130.0 L 213.5,129.0 L 214.5,128.0 L 215.0,126.5 L 216.0,125.5 L 217.0,124.5 L 218.0,123.5 L 219.0,122.5 L 220.0,121.5 L 221.0,120.5 L 222.5,120.0 L 224.0,119.5 L 225.0,118.5 L 227.0,118.5 L 228.0,117.5 L 230.0,117.5 L 232.0,117.5 L 234.0,117.5 L 236.0,117.5 L 238.0,117.5 L 239.0,118.5 L 241.0,118.5 L 242.0,119.5 L 244.0,119.5 L 245.0,120.5 L 246.0,121.5 L 247.5,122.0 L 248.5,123.0 L 249.5,124.0 L 250.5,125.0 L 251.5,126.0 L 252.5,127.0 L 253.0,128.5 L 254.0,129.5 L 254.5,131.0 L 255.0,132.5 L 255.5,134.0 L 256.0,135.5 L 257.5,135.0 Z"/>
<path d="M 168.5,156.0 L 170.0,155.5 L 172.0,155.5 L 173.0,154.5 L 174.0,153.5 L 175.5,153.0 L 176.5,152.0 L 177.5,151.0 L 178.5,150.0 L 179.5,149.0 L 178.0,148.5 L 176.0,148.5 L 176.0,147.5 L 176.0,146.5 L 175.0,147.5 L 174.0,148.5 L 172.0,148.5 L 171.0,149.5 L 169.0,149.5 L 167.5,149.0 L 166.0,148.5 L 165.0,147.5 L 163.5,147.0 L 162.5,146.0 L 162.0,144.5 L 161.5,143.0 L 161.0,141.5 L 160.5,140.0 L 161.0,138.5 L 161.5,137.0 L 162.0,135.5 L 163.0,134.5 L 164.0,133.5 L 165.0,132.5 L 166.5,132.0 L 168.0,131.5 L 170.0,131.5 L 172.0,131.5 L 173.5,132.0 L 175.0,132.5 L 176.0,133.5 L 176.5,135.0 L 177.5,136.0 L 178.0,137.5 L 178.5,139.0 L 178.5,141.0 L 178.0,142.5 L 177.5,144.0 L 178.0,145.5 L 179.5,145.0 L 180.5,145.0 L 181.0,146.5 L 181.5,145.0 L 182.0,143.5 L 182.5,142.0 L 182.5,140.0 L 182.5,138.0 L 182.5,136.0 L 181.5,135.0 L 181.0,133.5 L 180.5,132.0 L 179.5,131.0 L 179.0,129.5 L 178.0,128.5 L 177.0,127.5 L 175.5,127.0 L 174.5,126.0 L 173.0,125.5 L 172.0,124.5 L 170.0,124.5 L 168.5,124.0 L 167.0,123.5 L 165.0,123.5 L 163.0,123.5 L 162.0,124.5 L 160.0,124.5 L 158.5,125.0 L 157.5,126.0 L 156.0,126.5 L 155.0,127.5 L 154.0,128.5 L 153.0,129.5 L 153.0,130.5 L 154.0,129.5 L 155.0,130.5 L 155.5,132.0 L 154.0,132.5 L 153.0,131.5 L 151.5,132.0 L 150.5,133.0 L 150.5,135.0 L 150.0,136.5 L 149.5,138.0 L 149.5,140.0 L 149.5,142.0 L 150.5,143.0 L 150.5,145.0 L 151.0,146.5 L 151.5,148.0 L 152.5,149.0 L 153.0,150.5 L 154.0,151.5 L 155.0,152.5 L 156.5,153.0 L 158.0,153.5 L 159.0,154.5 L 159.0,153.5 L 159.0,152.5 L 161.0,152.5 L 162.0,153.5 L 162.0,154.5 L 160.5,155.0 L 162.0,155.5 L 163.5,156.0 L 165.0,156.5 L 167.0,156.5 L 168.5,156.0 Z"/>
<path d="M 235.5,156.0 L 237.0,155.5 L 238.5,155.0 L 240.0,154.5 L 241.0,153.5 L 242.5,153.0 L 243.5,152.0 L 245.0,151.5 L 245.5,150.0 L 246.5,149.0 L 247.5,148.0 L 248.5,147.0 L 248.5,145.0 L 249.5,144.0 L 249.5,142.0 L 249.0,140.5 L 248.5,142.0 L 248.0,143.5 L 247.5,142.0 L 246.5,141.0 L 246.5,139.0 L 247.0,137.5 L 248.0,136.5 L 248.5,138.0 L 249.5,138.0 L 249.5,136.0 L 249.0,134.5 L 248.5,133.0 L 247.5,132.0 L 247.0,130.5 L 246.0,129.5 L 245.0,128.5 L 244.0,127.5 L 243.0,126.5 L 242.0,127.5 L 240.5,127.0 L 241.5,126.0 L 240.0,125.5 L 239.0,124.5 L 237.5,124.0 L 236.0,123.5 L 234.0,123.5 L 232.0,123.5 L 230.0,123.5 L 229.0,124.5 L 227.0,124.5 L 226.0,125.5 L 224.5,126.0 L 223.0,126.5 L 222.0,127.5 L 221.0,128.5 L 220.0,129.5 L 219.5,131.0 L 218.5,132.0 L 218.0,133.5 L 217.5,135.0 L 216.5,136.0 L 216.5,138.0 L 216.5,140.0 L 216.5,142.0 L 217.0,143.5 L 217.5,145.0 L 218.0,146.5 L 218.5,145.0 L 220.0,144.5 L 221.5,144.0 L 221.0,142.5 L 220.5,141.0 L 220.5,139.0 L 221.0,137.5 L 221.5,136.0 L 222.5,135.0 L 223.5,134.0 L 224.5,133.0 L 225.5,132.0 L 227.0,131.5 L 228.5,131.0 L 230.0,130.5 L 231.0,131.5 L 233.0,131.5 L 234.0,132.5 L 235.0,133.5 L 236.0,134.5 L 237.0,135.5 L 237.5,137.0 L 238.0,138.5 L 238.5,140.0 L 238.0,141.5 L 237.5,143.0 L 237.0,144.5 L 236.0,145.5 L 235.0,146.5 L 234.0,147.5 L 233.0,148.5 L 231.5,149.0 L 230.0,149.5 L 228.0,149.5 L 227.0,148.5 L 225.0,148.5 L 224.0,147.5 L 223.0,146.5 L 222.0,145.5 L 221.5,147.0 L 220.0,147.5 L 218.5,148.0 L 219.5,149.0 L 220.0,150.5 L 221.0,151.5 L 222.0,152.5 L 223.5,153.0 L 224.5,154.0 L 226.0,154.5 L 227.0,155.5 L 229.0,155.5 L 230.5,156.0 L 232.0,156.5 L 234.0,156.5 L 235.5,156.0 Z"/>
<path d="M 168.0,125.5 L 166.0,125.5 L 164.0,125.5 L 162.5,125.0 L 164.0,124.5 L 166.0,124.5 L 168.0,124.5 L 168.0,125.5 Z"/>
<path d="M 236.0,125.5 L 234.0,125.5 L 232.0,125.5 L 230.5,125.0 L 232.0,124.5 L 234.0,124.5 L 236.0,124.5 L 236.0,125.5 Z"/>
<path d="M 123.0,133.5 L 121.0,133.5 L 119.0,133.5 L 119.0,132.5 L 120.5,132.0 L 121.5,132.0 L 123.0,132.5 L 123.0,133.5 Z"/>
<path d="M 228.5,181.0 L 230.0,180.5 L 232.0,180.5 L 234.0,180.5 L 236.0,180.5 L 238.0,180.5 L 240.0,180.5 L 241.0,179.5 L 243.0,179.5 L 245.0,179.5 L 246.5,179.0 L 246.5,177.0 L 247.5,176.0 L 248.0,174.5 L 249.0,173.5 L 249.5,172.0 L 250.5,171.0 L 251.5,170.0 L 252.5,169.0 L 253.5,168.0 L 254.5,167.0 L 255.5,166.0 L 257.0,165.5 L 258.0,164.5 L 259.5,164.0 L 261.0,163.5 L 263.0,163.5 L 264.0,162.5 L 266.0,162.5 L 268.0,162.5 L 270.0,162.5 L 272.0,162.5 L 273.5,162.0 L 272.0,161.5 L 272.0,160.5 L 273.5,160.0 L 274.5,160.0 L 275.5,160.0 L 274.5,159.0 L 273.5,158.0 L 272.5,157.0 L 272.0,155.5 L 271.5,154.0 L 271.5,152.0 L 271.5,150.0 L 271.5,148.0 L 270.5,147.0 L 270.5,145.0 L 270.5,143.0 L 270.0,141.5 L 269.0,140.5 L 267.0,140.5 L 265.0,140.5 L 263.0,140.5 L 261.0,140.5 L 259.0,140.5 L 257.0,140.5 L 256.5,142.0 L 256.0,143.5 L 255.5,145.0 L 255.5,147.0 L 254.5,148.0 L 254.0,149.5 L 253.5,151.0 L 252.5,152.0 L 251.5,153.0 L 250.5,154.0 L 249.5,155.0 L 249.0,156.5 L 248.0,157.5 L 247.0,158.5 L 245.5,159.0 L 244.0,159.5 L 243.0,160.5 L 241.5,161.0 L 240.0,161.5 L 238.5,162.0 L 237.0,162.5 L 235.0,162.5 L 233.0,162.5 L 231.0,162.5 L 229.0,162.5 L 227.0,162.5 L 226.0,161.5 L 224.5,161.0 L 223.0,160.5 L 222.0,159.5 L 220.5,159.0 L 219.0,158.5 L 218.0,157.5 L 217.0,156.5 L 216.0,155.5 L 215.0,154.5 L 214.5,153.0 L 213.5,152.0 L 212.5,151.0 L 212.0,149.5 L 211.5,148.0 L 210.0,147.5 L 208.5,147.0 L 208.5,145.0 L 208.0,143.5 L 208.0,142.5 L 209.5,143.0 L 209.5,145.0 L 210.0,146.5 L 210.5,145.0 L 210.5,143.0 L 209.5,142.0 L 208.0,141.5 L 207.0,140.5 L 206.0,139.5 L 204.0,139.5 L 203.0,138.5 L 201.0,138.5 L 199.0,138.5 L 197.0,138.5 L 195.5,139.0 L 194.0,139.5 L 194.0,140.5 L 194.0,141.5 L 192.5,141.0 L 191.5,141.0 L 190.5,142.0 L 189.5,143.0 L 188.5,144.0 L 188.5,146.0 L 187.5,147.0 L 187.0,148.5 L 186.5,150.0 L 185.5,151.0 L 185.0,152.5 L 184.0,153.5 L 183.0,154.5 L 182.0,155.5 L 181.0,156.5 L 180.0,157.5 L 179.0,158.5 L 178.0,159.5 L 176.5,160.0 L 175.0,160.5 L 174.0,161.5 L 172.0,161.5 L 170.5,162.0 L 169.0,162.5 L 167.0,162.5 L 165.0,162.5 L 163.0,162.5 L 161.0,162.5 L 160.0,163.5 L 159.5,162.0 L 158.0,161.5 L 157.0,160.5 L 155.5,160.0 L 154.0,159.5 L 153.0,158.5 L 152.0,157.5 L 151.0,156.5 L 149.5,156.0 L 149.0,154.5 L 148.0,153.5 L 147.0,152.5 L 146.5,151.0 L 145.5,150.0 L 145.0,148.5 L 144.5,147.0 L 144.0,145.5 L 143.5,144.0 L 143.5,142.0 L 143.0,140.5 L 142.5,142.0 L 141.5,142.0 L 141.0,140.5 L 139.0,140.5 L 137.0,140.5 L 135.5,141.0 L 135.0,142.5 L 133.0,142.5 L 132.5,141.0 L 131.0,140.5 L 130.0,141.5 L 129.5,143.0 L 129.5,145.0 L 129.5,147.0 L 129.5,149.0 L 130.5,150.0 L 130.5,152.0 L 130.5,154.0 L 132.0,154.5 L 132.0,155.5 L 132.0,156.5 L 133.0,157.5 L 134.5,158.0 L 135.5,159.0 L 137.0,159.5 L 138.0,160.5 L 139.0,161.5 L 140.0,162.5 L 141.0,163.5 L 141.5,165.0 L 142.5,166.0 L 143.5,167.0 L 144.0,168.5 L 144.5,170.0 L 145.5,171.0 L 146.0,172.5 L 147.0,171.5 L 149.0,171.5 L 150.0,172.5 L 151.0,173.5 L 153.0,173.5 L 155.0,173.5 L 157.0,173.5 L 159.0,173.5 L 161.0,173.5 L 163.0,173.5 L 165.0,173.5 L 167.0,173.5 L 169.0,173.5 L 171.0,173.5 L 173.0,173.5 L 175.0,173.5 L 176.5,174.0 L 178.0,174.5 L 180.0,174.5 L 182.0,174.5 L 183.5,175.0 L 185.0,175.5 L 187.0,175.5 L 189.0,175.5 L 190.0,176.5 L 192.0,176.5 L 193.5,177.0 L 195.0,177.5 L 197.0,177.5 L 199.0,177.5 L 200.0,178.5 L 202.0,178.5 L 204.0,178.5 L 205.0,179.5 L 207.0,179.5 L 209.0,179.5 L 211.0,179.5 L 212.5,180.0 L 214.0,180.5 L 216.0,180.5 L 218.0,180.5 L 220.0,180.5 L 222.0,180.5 L 223.0,181.5 L 225.0,181.5 L 227.0,181.5 L 228.5,181.0 Z"/>
<path d="M 311.5,179.0 L 312.5,178.0 L 313.0,176.5 L 313.5,175.0 L 314.5,174.0 L 315.0,172.5 L 315.5,171.0 L 316.0,169.5 L 316.5,168.0 L 317.0,166.5 L 317.5,165.0 L 318.5,164.0 L 318.5,162.0 L 319.0,160.5 L 319.5,159.0 L 320.0,157.5 L 320.5,156.0 L 321.0,154.5 L 321.5,153.0 L 322.0,151.5 L 322.5,150.0 L 323.0,148.5 L 323.5,147.0 L 322.5,147.0 L 321.0,147.5 L 320.0,148.5 L 319.0,149.5 L 319.0,150.5 L 320.5,151.0 L 320.5,153.0 L 320.0,154.5 L 318.0,154.5 L 317.5,153.0 L 316.5,153.0 L 315.5,154.0 L 315.0,155.5 L 314.0,156.5 L 313.0,157.5 L 312.5,159.0 L 311.5,160.0 L 311.0,161.5 L 310.5,163.0 L 309.5,164.0 L 308.5,165.0 L 308.0,166.5 L 307.0,167.5 L 306.5,169.0 L 305.5,170.0 L 305.0,171.5 L 304.5,173.0 L 303.5,174.0 L 302.5,175.0 L 303.5,175.0 L 304.5,175.0 L 305.5,176.0 L 307.0,176.5 L 308.5,176.0 L 310.0,175.5 L 311.5,176.0 L 311.5,178.0 L 310.0,178.5 L 309.0,177.5 L 307.0,177.5 L 305.0,177.5 L 303.0,177.5 L 302.0,176.5 L 301.0,177.5 L 301.0,178.5 L 303.0,178.5 L 305.0,178.5 L 307.0,178.5 L 308.5,179.0 L 310.0,179.5 L 311.5,179.0 Z"/>
<path d="M 326.5,182.0 L 327.0,180.5 L 327.5,179.0 L 327.5,177.0 L 327.5,175.0 L 326.5,175.0 L 326.5,177.0 L 325.5,177.0 L 325.0,175.5 L 323.5,175.0 L 322.5,174.0 L 323.0,172.5 L 324.5,172.0 L 325.5,171.0 L 324.5,170.0 L 324.5,168.0 L 324.5,166.0 L 325.0,164.5 L 326.5,165.0 L 326.5,167.0 L 326.5,169.0 L 327.5,170.0 L 328.0,171.5 L 328.5,170.0 L 328.5,168.0 L 329.5,167.0 L 329.5,165.0 L 329.5,163.0 L 329.5,161.0 L 329.5,159.0 L 330.5,158.0 L 330.5,156.0 L 330.5,154.0 L 330.5,152.0 L 330.5,150.0 L 330.5,148.0 L 330.0,146.5 L 329.5,148.0 L 328.5,149.0 L 328.5,151.0 L 327.5,152.0 L 327.5,154.0 L 326.5,155.0 L 326.5,157.0 L 325.5,158.0 L 325.5,160.0 L 324.5,161.0 L 324.5,163.0 L 323.5,164.0 L 323.0,165.5 L 322.5,167.0 L 322.0,168.5 L 321.5,170.0 L 321.0,171.5 L 320.5,173.0 L 319.5,174.0 L 319.0,175.5 L 318.5,177.0 L 319.0,178.5 L 321.0,178.5 L 322.0,179.5 L 322.0,180.5 L 322.0,181.5 L 324.0,181.5 L 325.5,182.0 L 326.5,182.0 Z"/>
<path d="M 201.0,167.5 L 199.0,167.5 L 197.0,167.5 L 196.0,166.5 L 195.0,165.5 L 194.0,164.5 L 193.0,163.5 L 192.0,162.5 L 191.0,161.5 L 190.0,160.5 L 189.5,159.0 L 189.5,157.0 L 190.0,155.5 L 191.0,154.5 L 192.0,153.5 L 194.0,153.5 L 196.0,153.5 L 197.5,153.0 L 199.0,152.5 L 200.5,153.0 L 202.0,153.5 L 204.0,153.5 L 206.0,153.5 L 207.5,154.0 L 208.5,155.0 L 209.5,156.0 L 209.5,158.0 L 208.5,159.0 L 208.0,160.5 L 207.5,162.0 L 206.5,163.0 L 205.5,164.0 L 204.5,165.0 L 203.0,165.5 L 202.0,166.5 L 201.0,167.5 Z"/>
<path d="M 318.0,159.5 L 316.5,159.0 L 315.5,158.0 L 314.5,157.0 L 315.5,156.0 L 316.5,156.0 L 318.0,156.5 L 318.5,158.0 L 318.0,159.5 Z"/>
<path d="M 121.5,191.0 L 120.5,190.0 L 119.5,189.0 L 121.0,188.5 L 122.5,188.0 L 122.5,186.0 L 121.5,185.0 L 121.5,183.0 L 120.5,182.0 L 121.0,180.5 L 122.0,179.5 L 123.0,178.5 L 124.5,179.0 L 125.5,180.0 L 126.5,181.0 L 126.5,183.0 L 127.5,184.0 L 128.0,185.5 L 128.5,187.0 L 129.5,188.0 L 130.0,189.5 L 131.5,189.0 L 132.5,188.0 L 131.5,187.0 L 131.5,185.0 L 131.5,183.0 L 130.5,182.0 L 130.5,180.0 L 129.5,179.0 L 129.5,177.0 L 130.0,175.5 L 131.5,175.0 L 133.0,174.5 L 134.0,175.5 L 135.0,176.5 L 136.0,177.5 L 136.5,179.0 L 137.0,180.5 L 137.5,182.0 L 138.0,183.5 L 138.5,185.0 L 140.0,185.5 L 140.5,184.0 L 140.5,182.0 L 140.5,180.0 L 140.5,178.0 L 140.0,176.5 L 139.5,175.0 L 139.0,173.5 L 138.5,172.0 L 137.5,171.0 L 137.0,169.5 L 136.5,168.0 L 135.5,167.0 L 134.5,166.0 L 133.5,165.0 L 132.0,164.5 L 131.0,163.5 L 129.5,163.0 L 128.0,162.5 L 126.5,162.0 L 125.0,161.5 L 123.0,161.5 L 121.0,161.5 L 119.0,161.5 L 117.0,161.5 L 115.0,161.5 L 114.0,162.5 L 112.0,162.5 L 111.0,163.5 L 109.5,164.0 L 108.5,165.0 L 107.5,166.0 L 106.5,167.0 L 105.5,168.0 L 104.5,169.0 L 105.5,170.0 L 106.5,171.0 L 105.0,171.5 L 104.0,170.5 L 103.5,172.0 L 102.5,173.0 L 102.5,175.0 L 102.5,177.0 L 102.5,179.0 L 103.5,180.0 L 103.5,182.0 L 104.5,183.0 L 105.0,184.5 L 105.5,186.0 L 106.5,187.0 L 107.5,188.0 L 108.5,189.0 L 109.5,190.0 L 111.0,190.5 L 112.5,190.0 L 111.5,189.0 L 111.0,187.5 L 110.0,188.5 L 108.5,188.0 L 107.5,187.0 L 108.5,186.0 L 109.5,186.0 L 110.5,186.0 L 110.5,184.0 L 110.5,182.0 L 111.5,181.0 L 113.0,180.5 L 114.5,181.0 L 115.5,182.0 L 116.5,182.0 L 117.0,180.5 L 119.0,180.5 L 119.5,182.0 L 119.5,184.0 L 118.0,184.5 L 116.5,185.0 L 117.5,186.0 L 118.0,187.5 L 118.5,189.0 L 119.5,190.0 L 120.5,191.0 L 121.5,191.0 Z"/>
<path d="M 286.5,167.0 L 285.5,166.0 L 284.5,165.0 L 283.5,164.0 L 282.5,163.0 L 281.0,162.5 L 280.0,163.5 L 280.0,164.5 L 281.5,165.0 L 283.0,165.5 L 284.0,166.5 L 285.5,167.0 L 286.5,167.0 Z"/>
<path d="M 270.5,197.0 L 271.5,196.0 L 272.5,195.0 L 272.5,193.0 L 271.0,192.5 L 270.0,191.5 L 270.0,190.5 L 270.5,189.0 L 271.5,189.0 L 273.0,189.5 L 274.0,190.5 L 274.5,189.0 L 275.5,188.0 L 276.0,186.5 L 277.0,185.5 L 279.0,185.5 L 280.0,186.5 L 280.5,188.0 L 280.5,190.0 L 279.5,191.0 L 279.0,192.5 L 278.5,194.0 L 279.0,195.5 L 281.0,195.5 L 282.5,195.0 L 283.5,194.0 L 284.5,193.0 L 285.0,191.5 L 286.0,190.5 L 286.5,189.0 L 287.5,188.0 L 288.0,186.5 L 288.5,185.0 L 288.5,183.0 L 287.5,182.0 L 287.5,180.0 L 287.5,178.0 L 286.5,177.0 L 286.0,175.5 L 285.0,174.5 L 284.0,173.5 L 283.0,172.5 L 281.5,172.0 L 280.5,171.0 L 279.0,170.5 L 277.5,170.0 L 276.0,169.5 L 274.5,169.0 L 273.0,168.5 L 271.0,168.5 L 269.0,168.5 L 267.0,168.5 L 265.0,168.5 L 263.5,169.0 L 262.0,169.5 L 260.5,170.0 L 259.0,170.5 L 258.0,171.5 L 257.0,172.5 L 256.0,173.5 L 255.0,174.5 L 254.0,175.5 L 253.5,177.0 L 252.5,178.0 L 252.5,180.0 L 251.5,181.0 L 251.5,183.0 L 251.0,184.5 L 250.5,186.0 L 250.5,188.0 L 251.0,189.5 L 251.5,191.0 L 253.0,191.5 L 253.5,190.0 L 254.5,189.0 L 254.5,187.0 L 255.5,186.0 L 254.5,186.0 L 253.0,186.5 L 252.5,185.0 L 252.5,183.0 L 254.0,182.5 L 255.0,183.5 L 256.5,183.0 L 257.5,182.0 L 259.0,181.5 L 260.5,182.0 L 261.5,183.0 L 261.5,185.0 L 261.0,186.5 L 261.0,187.5 L 262.0,186.5 L 263.5,187.0 L 264.5,188.0 L 265.5,188.0 L 266.0,186.5 L 267.0,185.5 L 269.0,185.5 L 270.0,186.5 L 270.5,188.0 L 269.5,189.0 L 269.0,190.5 L 268.5,192.0 L 268.5,194.0 L 267.5,195.0 L 268.0,196.5 L 269.0,197.5 L 270.5,197.0 Z"/>
<path d="M 84.5,201.0 L 85.5,200.0 L 86.5,199.0 L 87.5,198.0 L 89.0,197.5 L 90.0,196.5 L 91.0,195.5 L 92.5,195.0 L 93.5,194.0 L 95.0,193.5 L 96.0,192.5 L 97.5,192.0 L 99.0,191.5 L 100.0,190.5 L 100.5,189.0 L 99.5,188.0 L 99.0,186.5 L 98.5,185.0 L 98.0,183.5 L 97.5,182.0 L 97.0,180.5 L 96.0,179.5 L 95.0,180.5 L 93.0,180.5 L 92.5,179.0 L 94.0,178.5 L 96.0,178.5 L 96.0,177.5 L 94.0,177.5 L 93.0,176.5 L 91.0,176.5 L 90.0,175.5 L 88.0,175.5 L 86.5,175.0 L 85.0,174.5 L 83.0,174.5 L 81.5,174.0 L 80.0,173.5 L 78.0,173.5 L 76.0,173.5 L 74.0,173.5 L 72.0,173.5 L 71.0,174.5 L 69.0,174.5 L 67.0,174.5 L 65.5,175.0 L 64.0,175.5 L 62.5,176.0 L 61.0,176.5 L 60.0,177.5 L 58.5,178.0 L 57.5,179.0 L 56.5,180.0 L 56.5,182.0 L 57.5,183.0 L 58.0,184.5 L 59.0,185.5 L 60.0,186.5 L 61.0,187.5 L 62.0,188.5 L 63.0,189.5 L 64.0,190.5 L 65.5,191.0 L 66.5,192.0 L 67.5,193.0 L 69.0,193.5 L 70.0,194.5 L 71.0,195.5 L 72.0,196.5 L 73.5,197.0 L 75.0,197.5 L 76.0,198.5 L 77.0,199.5 L 78.5,200.0 L 80.0,200.5 L 81.0,201.5 L 82.0,200.5 L 83.5,201.0 L 84.5,201.0 Z"/>
<path d="M 81.0,175.5 L 79.0,175.5 L 77.0,175.5 L 75.0,175.5 L 73.0,175.5 L 71.5,175.0 L 73.0,174.5 L 75.0,174.5 L 77.0,174.5 L 79.0,174.5 L 81.0,174.5 L 81.0,175.5 Z"/>
<path d="M 183.5,382.0 L 182.0,381.5 L 180.0,381.5 L 178.0,381.5 L 176.0,381.5 L 175.0,380.5 L 173.0,380.5 L 172.0,381.5 L 171.0,380.5 L 169.0,380.5 L 167.0,380.5 L 166.0,379.5 L 164.0,379.5 L 162.0,379.5 L 160.5,379.0 L 159.0,378.5 L 157.0,378.5 L 156.0,377.5 L 154.0,377.5 L 152.0,377.5 L 151.0,376.5 L 150.0,375.5 L 148.0,375.5 L 146.0,375.5 L 145.0,374.5 L 143.5,374.0 L 142.0,373.5 L 141.0,372.5 L 139.0,372.5 L 137.5,372.0 L 136.0,371.5 L 135.0,370.5 L 133.5,370.0 L 132.0,369.5 L 130.0,369.5 L 129.0,368.5 L 127.5,368.0 L 126.0,367.5 L 124.5,367.0 L 123.5,366.0 L 122.0,365.5 L 120.5,365.0 L 119.5,364.0 L 118.0,363.5 L 117.0,362.5 L 115.5,362.0 L 114.0,361.5 L 113.0,360.5 L 111.0,360.5 L 110.0,359.5 L 108.5,359.0 L 107.5,358.0 L 106.0,357.5 L 105.0,356.5 L 104.0,355.5 L 102.5,355.0 L 101.5,354.0 L 100.0,353.5 L 99.0,352.5 L 98.0,351.5 L 96.0,351.5 L 95.5,350.0 L 94.0,349.5 L 92.0,349.5 L 91.0,348.5 L 90.0,347.5 L 89.0,346.5 L 87.5,346.0 L 86.5,345.0 L 85.5,344.0 L 84.5,343.0 L 83.0,342.5 L 82.0,341.5 L 81.5,340.0 L 80.0,339.5 L 78.5,339.0 L 77.5,338.0 L 76.5,337.0 L 75.5,336.0 L 74.0,335.5 L 73.5,334.0 L 72.0,333.5 L 71.5,332.0 L 70.5,331.0 L 69.5,330.0 L 68.5,329.0 L 67.5,328.0 L 66.5,327.0 L 65.5,326.0 L 64.5,325.0 L 63.5,324.0 L 62.5,323.0 L 61.5,322.0 L 60.5,321.0 L 59.5,320.0 L 58.5,319.0 L 57.5,318.0 L 56.5,317.0 L 55.5,316.0 L 54.5,315.0 L 54.0,313.5 L 53.5,312.0 L 52.0,311.5 L 51.5,310.0 L 50.5,309.0 L 49.5,308.0 L 48.5,307.0 L 47.5,306.0 L 46.5,305.0 L 45.5,304.0 L 45.0,302.5 L 44.0,301.5 L 43.0,300.5 L 42.5,299.0 L 41.5,298.0 L 40.5,297.0 L 39.5,296.0 L 39.0,294.5 L 38.0,293.5 L 37.0,292.5 L 36.0,291.5 L 35.5,290.0 L 35.5,288.0 L 34.0,287.5 L 33.5,286.0 L 32.5,285.0 L 32.0,283.5 L 31.5,282.0 L 30.5,281.0 L 30.0,279.5 L 29.5,278.0 L 28.5,277.0 L 27.5,276.0 L 27.0,274.5 L 26.5,273.0 L 25.5,272.0 L 24.5,271.0 L 24.5,269.0 L 23.5,268.0 L 23.0,266.5 L 22.0,265.5 L 22.0,264.5 L 22.0,263.5 L 21.5,262.0 L 21.0,260.5 L 20.0,259.5 L 19.5,258.0 L 19.0,256.5 L 18.0,255.5 L 17.5,254.0 L 16.5,253.0 L 16.0,251.5 L 15.5,250.0 L 15.5,248.0 L 15.0,246.5 L 14.0,245.5 L 13.5,244.0 L 12.5,243.0 L 13.5,242.0 L 12.5,241.0 L 12.0,239.5 L 11.5,238.0 L 11.5,236.0 L 10.5,235.0 L 10.5,233.0 L 9.5,232.0 L 9.0,230.5 L 9.0,229.5 L 9.5,228.0 L 8.5,227.0 L 8.0,225.5 L 7.5,224.0 L 6.5,223.0 L 6.5,221.0 L 6.5,219.0 L 6.5,217.0 L 5.5,216.0 L 5.5,214.0 L 5.5,212.0 L 4.5,211.0 L 4.0,209.5 L 4.0,208.5 L 4.0,207.5 L 3.5,206.0 L 3.5,204.0 L 3.5,202.0 L 3.5,200.0 L 2.5,199.0 L 3.5,198.0 L 2.5,197.0 L 1.5,196.0 L 2.0,194.5 L 2.5,193.0 L 1.5,192.0 L 1.5,190.0 L 1.5,188.0 L 1.5,186.0 L 1.5,184.0 L 1.5,182.0 L 1.0,180.5 L 0.5,179.0 L 1.0,177.5 L 1.0,176.5 L 0.0,175.5 Z"/>
<path d="M 401.0,178.5 L 400.5,180.0 L 400.5,182.0 L 400.5,184.0 L 400.5,186.0 L 400.5,188.0 L 400.5,190.0 L 400.5,192.0 L 399.5,193.0 L 399.5,195.0 L 399.0,196.5 L 398.5,198.0 L 399.5,199.0 L 398.5,200.0 L 398.5,202.0 L 398.5,204.0 L 398.5,206.0 L 397.5,207.0 L 397.5,209.0 L 397.5,211.0 L 397.5,213.0 L 396.5,214.0 L 396.5,216.0 L 397.5,217.0 L 396.5,218.0 L 396.0,219.5 L 396.0,220.5 L 396.0,221.5 L 395.5,223.0 L 394.5,224.0 L 395.5,225.0 L 394.5,226.0 L 394.0,227.5 L 393.5,229.0 L 393.5,231.0 L 392.5,232.0 L 392.5,234.0 L 392.0,235.5 L 392.0,236.5 L 392.0,237.5 L 391.0,238.5 L 390.5,240.0 L 390.5,242.0 L 389.5,243.0 L 389.0,244.5 L 388.5,246.0 L 388.0,247.5 L 388.0,248.5 L 388.0,249.5 L 387.5,251.0 L 386.5,252.0 L 386.5,254.0 L 386.0,255.5 L 385.0,256.5 L 384.5,258.0 L 384.0,259.5 L 383.0,260.5 L 382.0,261.5 L 381.5,263.0 L 381.5,265.0 L 380.0,265.5 L 379.5,267.0 L 379.0,268.5 L 378.5,270.0 L 377.5,271.0 L 376.5,272.0 L 376.5,274.0 L 375.5,275.0 L 374.5,276.0 L 374.0,277.5 L 373.5,279.0 L 372.5,280.0 L 372.5,282.0 L 371.5,283.0 L 370.5,284.0 L 369.5,285.0 L 368.5,286.0 L 368.0,287.5 L 367.5,289.0 L 366.5,290.0 L 366.0,291.5 L 365.5,293.0 L 364.5,294.0 L 364.0,295.5 L 362.5,296.0 L 362.0,297.5 L 362.0,298.5 L 362.0,299.5 L 360.5,300.0 L 360.0,301.5 L 359.0,302.5 L 358.0,303.5 L 356.5,304.0 L 356.0,305.5 L 355.5,307.0 L 354.5,308.0 L 353.5,309.0 L 352.5,310.0 L 352.0,311.5 L 351.0,312.5 L 350.0,313.5 L 349.0,314.5 L 348.0,315.5 L 347.0,316.5 L 346.0,317.5 L 345.0,318.5 L 344.0,319.5 L 343.5,321.0 L 342.0,321.5 L 341.0,322.5 L 340.5,324.0 L 339.5,325.0 L 338.5,326.0 L 337.0,326.5 L 336.0,327.5 L 335.0,328.5 L 334.0,329.5 L 333.5,331.0 L 332.0,331.5 L 331.0,332.5 L 330.0,333.5 L 329.0,334.5 L 328.0,335.5 L 327.0,336.5 L 326.0,337.5 L 324.5,338.0 L 324.0,339.5 L 322.5,340.0 L 321.0,340.5 L 320.5,342.0 L 319.5,343.0 L 318.0,343.5 L 317.0,344.5 L 316.0,345.5 L 314.5,346.0 L 313.5,347.0 L 312.0,347.5 L 311.0,348.5 L 309.5,349.0 L 308.5,350.0 L 307.5,351.0 L 306.0,351.5 L 305.0,352.5 L 303.0,352.5 L 302.0,353.5 L 301.0,354.5 L 300.0,355.5 L 299.0,356.5 L 297.5,357.0 L 296.0,357.5 L 295.0,358.5 L 293.5,359.0 L 292.0,359.5 L 291.0,360.5 L 289.5,361.0 L 288.0,361.5 L 286.5,362.0 L 285.0,362.5 L 284.0,363.5 L 283.0,364.5 L 281.0,364.5 L 280.0,365.5 L 279.0,366.5 L 278.0,367.5 L 276.0,367.5 L 275.0,368.5 L 273.0,368.5 L 271.5,369.0 L 270.0,369.5 L 268.5,370.0 L 267.0,370.5 L 266.0,371.5 L 264.0,371.5 L 262.5,372.0 L 261.0,372.5 L 260.0,373.5 L 258.0,373.5 L 256.5,374.0 L 255.0,374.5 L 254.0,375.5 L 252.0,375.5 L 250.0,375.5 L 248.5,376.0 L 247.0,376.5 L 246.0,377.5 L 244.0,377.5 L 242.0,377.5 L 241.0,378.5 L 239.0,378.5 L 237.0,378.5 L 236.0,379.5 L 234.0,379.5 L 232.5,380.0 L 231.0,380.5 L 229.0,380.5 L 227.5,381.0 L 226.5,381.0 L 225.0,380.5 L 224.0,381.5 L 223.0,380.5 L 222.0,381.5 L 220.0,381.5 L 218.0,381.5 L 216.0,381.5 Z"/>
<path d="M 148.5,273.0 L 150.0,272.5 L 152.0,272.5 L 154.0,272.5 L 156.0,272.5 L 158.0,272.5 L 159.0,271.5 L 161.0,271.5 L 163.0,271.5 L 165.0,271.5 L 166.5,271.0 L 168.0,270.5 L 170.0,270.5 L 172.0,270.5 L 173.0,269.5 L 175.0,269.5 L 177.0,269.5 L 178.0,268.5 L 180.0,268.5 L 182.0,268.5 L 183.5,268.0 L 185.0,267.5 L 187.0,267.5 L 188.5,267.0 L 190.0,266.5 L 192.0,266.5 L 193.5,266.0 L 195.0,265.5 L 197.0,265.5 L 198.5,265.0 L 200.0,264.5 L 202.0,264.5 L 203.0,263.5 L 205.0,263.5 L 207.0,263.5 L 208.0,262.5 L 210.0,262.5 L 211.5,262.0 L 210.0,261.5 L 208.0,261.5 L 207.0,260.5 L 205.0,260.5 L 203.5,260.0 L 202.0,259.5 L 200.5,259.0 L 199.0,258.5 L 197.0,258.5 L 196.0,257.5 L 194.0,257.5 L 193.0,256.5 L 191.0,256.5 L 190.0,255.5 L 188.0,255.5 L 187.0,254.5 L 185.5,254.0 L 184.5,253.0 L 183.5,252.0 L 183.0,250.5 L 182.5,249.0 L 182.5,247.0 L 183.0,245.5 L 183.5,244.0 L 184.5,243.0 L 185.5,242.0 L 186.5,241.0 L 188.0,240.5 L 189.0,239.5 L 190.0,238.5 L 192.0,238.5 L 193.0,237.5 L 195.0,237.5 L 196.0,236.5 L 198.0,236.5 L 199.0,235.5 L 201.0,235.5 L 202.5,235.0 L 204.0,234.5 L 205.5,234.0 L 207.0,233.5 L 209.0,233.5 L 210.0,232.5 L 212.0,232.5 L 213.5,232.0 L 215.0,231.5 L 217.0,231.5 L 218.0,230.5 L 220.0,230.5 L 222.0,230.5 L 223.5,230.0 L 225.0,229.5 L 227.0,229.5 L 228.5,229.0 L 230.0,228.5 L 232.0,228.5 L 234.0,228.5 L 235.0,227.5 L 237.0,227.5 L 239.0,227.5 L 240.0,226.5 L 242.0,226.5 L 244.0,226.5 L 246.0,226.5 L 247.0,225.5 L 249.0,225.5 L 251.0,225.5 L 253.0,225.5 L 255.0,225.5 L 257.0,225.5 L 259.0,225.5 L 261.0,225.5 L 262.5,226.0 L 264.0,226.5 L 266.0,226.5 L 267.0,227.5 L 268.5,228.0 L 270.0,228.5 L 271.5,229.0 L 273.0,229.5 L 274.0,230.5 L 275.5,231.0 L 277.0,231.5 L 278.5,232.0 L 280.0,232.5 L 281.0,233.5 L 282.5,234.0 L 284.0,234.5 L 285.5,235.0 L 287.0,235.5 L 288.0,236.5 L 289.5,236.0 L 290.5,235.0 L 292.0,234.5 L 293.0,233.5 L 294.5,233.0 L 296.0,232.5 L 297.0,231.5 L 298.0,230.5 L 299.5,230.0 L 301.0,229.5 L 302.0,228.5 L 303.5,228.0 L 304.5,227.0 L 306.0,226.5 L 307.0,225.5 L 308.5,225.0 L 309.5,224.0 L 311.0,223.5 L 312.0,222.5 L 313.0,221.5 L 313.0,220.5 L 312.0,219.5 L 312.0,218.5 L 313.5,218.0 L 312.0,217.5 L 311.0,216.5 L 309.0,216.5 L 308.0,215.5 L 306.5,215.0 L 305.0,214.5 L 304.0,213.5 L 302.5,213.0 L 302.0,211.5 L 301.5,210.0 L 301.5,208.0 L 301.5,206.0 L 302.5,205.0 L 303.0,203.5 L 304.0,202.5 L 305.0,201.5 L 306.0,200.5 L 307.5,200.0 L 309.0,199.5 L 310.5,199.0 L 312.0,198.5 L 313.0,197.5 L 315.0,197.5 L 316.0,196.5 L 318.0,196.5 L 319.5,196.0 L 321.0,195.5 L 323.0,195.5 L 324.0,194.5 L 326.0,194.5 L 328.0,194.5 L 329.0,193.5 L 331.0,193.5 L 332.5,193.0 L 331.5,192.0 L 330.5,192.0 L 329.0,192.5 L 327.5,192.0 L 328.0,190.5 L 328.0,189.5 L 326.5,189.0 L 325.0,188.5 L 323.0,188.5 L 322.0,187.5 L 320.0,187.5 L 318.5,187.0 L 317.0,186.5 L 315.0,186.5 L 313.0,186.5 L 311.0,186.5 L 310.0,185.5 L 308.0,185.5 L 306.0,185.5 L 304.0,185.5 L 303.0,184.5 L 301.0,184.5 L 299.0,184.5 L 297.0,184.5 L 295.0,184.5 L 293.5,184.0 L 292.5,184.0 L 292.0,185.5 L 291.0,186.5 L 290.0,187.5 L 289.5,189.0 L 288.5,190.0 L 287.5,191.0 L 286.5,192.0 L 286.0,193.5 L 285.5,195.0 L 285.5,197.0 L 285.5,199.0 L 285.0,200.5 L 284.0,201.5 L 282.5,202.0 L 281.0,202.5 L 279.0,202.5 L 277.0,202.5 L 276.0,201.5 L 274.5,202.0 L 273.5,203.0 L 272.0,203.5 L 271.0,204.5 L 269.0,204.5 L 267.0,204.5 L 267.0,205.5 L 268.5,206.0 L 267.5,207.0 L 267.0,208.5 L 266.0,209.5 L 265.5,211.0 L 264.5,212.0 L 263.0,212.5 L 262.0,213.5 L 261.0,214.5 L 259.0,214.5 L 258.0,215.5 L 256.5,215.0 L 255.0,214.5 L 253.5,214.0 L 252.0,213.5 L 251.0,212.5 L 250.5,211.0 L 249.5,210.0 L 249.0,208.5 L 248.5,207.0 L 249.0,205.5 L 249.5,204.0 L 250.0,202.5 L 251.0,201.5 L 252.0,200.5 L 253.0,199.5 L 255.0,199.5 L 255.5,198.0 L 254.5,198.0 L 253.0,198.5 L 251.5,199.0 L 250.0,199.5 L 250.0,198.5 L 250.0,197.5 L 248.5,197.0 L 247.5,196.0 L 246.5,195.0 L 246.0,193.5 L 245.5,192.0 L 245.5,190.0 L 245.0,188.5 L 244.5,187.0 L 243.0,186.5 L 241.0,186.5 L 239.5,187.0 L 238.0,187.5 L 236.0,187.5 L 234.0,187.5 L 232.0,187.5 L 230.0,187.5 L 228.0,187.5 L 226.0,187.5 L 224.0,187.5 L 222.0,187.5 L 220.0,187.5 L 218.0,187.5 L 216.0,187.5 L 214.0,187.5 L 213.0,186.5 L 211.0,186.5 L 209.0,186.5 L 207.0,186.5 L 206.0,187.5 L 204.0,187.5 L 202.5,187.0 L 204.0,186.5 L 204.0,185.5 L 202.0,185.5 L 200.0,185.5 L 199.0,184.5 L 197.0,184.5 L 195.0,184.5 L 194.0,183.5 L 192.0,183.5 L 190.0,183.5 L 188.5,183.0 L 187.0,182.5 L 185.0,182.5 L 183.0,182.5 L 182.0,183.5 L 180.0,183.5 L 178.5,183.0 L 180.0,182.5 L 181.5,182.0 L 180.0,181.5 L 178.0,181.5 L 176.0,181.5 L 175.0,180.5 L 173.0,180.5 L 171.0,180.5 L 169.5,180.0 L 168.0,179.5 L 166.0,179.5 L 164.0,179.5 L 162.0,179.5 L 160.0,179.5 L 159.0,180.5 L 157.0,180.5 L 155.0,180.5 L 153.0,180.5 L 151.0,180.5 L 149.5,181.0 L 148.0,181.5 L 147.5,183.0 L 147.5,185.0 L 146.5,186.0 L 146.5,188.0 L 145.5,189.0 L 145.0,190.5 L 144.0,191.5 L 143.0,192.5 L 141.5,193.0 L 140.0,193.5 L 138.5,193.0 L 137.5,193.0 L 136.5,194.0 L 135.5,195.0 L 134.5,196.0 L 133.0,196.5 L 131.0,196.5 L 129.0,196.5 L 127.5,196.0 L 126.5,196.0 L 125.5,197.0 L 124.0,197.5 L 123.0,198.5 L 121.0,198.5 L 119.5,198.0 L 118.0,197.5 L 117.0,196.5 L 116.0,195.5 L 115.0,196.5 L 113.5,197.0 L 112.0,197.5 L 110.0,197.5 L 108.5,197.0 L 107.0,196.5 L 106.0,195.5 L 105.0,194.5 L 104.0,193.5 L 103.0,192.5 L 102.0,193.5 L 100.5,194.0 L 99.5,195.0 L 98.0,195.5 L 97.0,196.5 L 96.0,197.5 L 95.0,198.5 L 94.0,199.5 L 94.0,200.5 L 95.5,201.0 L 97.0,201.5 L 98.5,202.0 L 100.0,202.5 L 101.5,203.0 L 103.0,203.5 L 104.5,204.0 L 106.0,204.5 L 107.5,205.0 L 109.0,205.5 L 110.5,206.0 L 112.0,206.5 L 113.5,207.0 L 115.0,207.5 L 116.0,208.5 L 117.5,209.0 L 119.0,209.5 L 120.0,210.5 L 121.5,211.0 L 123.0,211.5 L 124.0,212.5 L 125.0,213.5 L 126.0,214.5 L 127.0,215.5 L 127.5,217.0 L 128.5,218.0 L 129.0,219.5 L 129.5,221.0 L 130.5,222.0 L 131.0,223.5 L 131.5,225.0 L 132.0,226.5 L 132.5,228.0 L 132.5,230.0 L 132.0,231.5 L 131.5,233.0 L 131.5,235.0 L 130.5,236.0 L 129.5,237.0 L 129.0,238.5 L 128.0,239.5 L 127.0,240.5 L 126.0,241.5 L 125.0,242.5 L 123.5,243.0 L 122.0,243.5 L 120.5,244.0 L 119.0,244.5 L 117.0,244.5 L 115.5,245.0 L 114.0,245.5 L 112.0,245.5 L 110.0,245.5 L 108.0,245.5 L 106.0,245.5 L 104.0,245.5 L 102.0,245.5 L 100.0,245.5 L 98.0,245.5 L 96.5,245.0 L 95.0,244.5 L 93.0,244.5 L 91.0,244.5 L 90.0,243.5 L 88.0,243.5 L 86.0,243.5 L 85.0,242.5 L 83.0,242.5 L 82.0,241.5 L 80.0,241.5 L 79.0,240.5 L 77.5,240.0 L 76.0,239.5 L 75.0,238.5 L 73.5,238.0 L 72.0,237.5 L 71.0,236.5 L 69.5,236.0 L 68.5,236.0 L 68.5,238.0 L 68.5,240.0 L 68.5,242.0 L 68.5,244.0 L 69.5,245.0 L 70.0,246.5 L 70.5,248.0 L 71.0,249.5 L 71.5,251.0 L 72.5,252.0 L 73.5,253.0 L 74.0,254.5 L 75.0,255.5 L 76.0,256.5 L 77.0,257.5 L 78.0,258.5 L 79.0,259.5 L 80.5,260.0 L 81.5,261.0 L 83.0,261.5 L 84.0,262.5 L 85.5,263.0 L 87.0,263.5 L 88.0,264.5 L 89.5,265.0 L 91.0,265.5 L 92.0,266.5 L 93.5,267.0 L 95.0,267.5 L 96.5,268.0 L 98.0,268.5 L 99.5,269.0 L 101.0,269.5 L 103.0,269.5 L 104.0,270.5 L 106.0,270.5 L 107.5,271.0 L 109.0,271.5 L 111.0,271.5 L 113.0,271.5 L 114.0,272.5 L 116.0,272.5 L 118.0,272.5 L 120.0,272.5 L 121.5,273.0 L 123.0,273.5 L 125.0,273.5 L 127.0,273.5 L 129.0,273.5 L 131.0,273.5 L 133.0,273.5 L 135.0,273.5 L 137.0,273.5 L 139.0,273.5 L 141.0,273.5 L 143.0,273.5 L 145.0,273.5 L 147.0,273.5 L 148.5,273.0 Z"/>
<path d="M 168.0,181.5 L 166.0,181.5 L 164.0,181.5 L 162.0,181.5 L 160.0,181.5 L 160.0,180.5 L 162.0,180.5 L 164.0,180.5 L 166.0,180.5 L 168.0,180.5 L 168.0,181.5 Z"/>
<path d="M 233.0,189.5 L 231.0,189.5 L 229.0,189.5 L 227.0,189.5 L 225.0,189.5 L 223.0,189.5 L 221.5,189.0 L 223.0,188.5 L 225.0,188.5 L 227.0,188.5 L 229.0,188.5 L 231.0,188.5 L 233.0,188.5 L 233.0,189.5 Z"/>
<path d="M 262.5,195.0 L 263.0,193.5 L 263.5,192.0 L 264.5,191.0 L 264.0,189.5 L 263.0,190.5 L 262.0,191.5 L 261.0,190.5 L 260.0,189.5 L 259.5,191.0 L 259.5,193.0 L 260.0,194.5 L 261.0,195.5 L 262.5,195.0 Z"/>
<path d="M 350.5,218.0 L 352.0,217.5 L 353.5,217.0 L 355.0,216.5 L 356.0,215.5 L 357.5,215.0 L 358.5,214.0 L 359.5,213.0 L 359.0,211.5 L 358.0,210.5 L 357.0,209.5 L 355.5,209.0 L 354.0,208.5 L 353.0,207.5 L 351.5,207.0 L 350.0,206.5 L 349.0,205.5 L 347.5,205.0 L 346.0,204.5 L 345.0,203.5 L 343.5,203.0 L 342.0,202.5 L 341.0,201.5 L 339.0,201.5 L 338.0,200.5 L 336.5,200.0 L 335.0,199.5 L 333.0,199.5 L 331.0,199.5 L 330.0,200.5 L 328.0,200.5 L 326.0,200.5 L 324.5,201.0 L 323.0,201.5 L 321.0,201.5 L 320.0,202.5 L 318.0,202.5 L 317.0,203.5 L 315.0,203.5 L 313.5,204.0 L 312.0,204.5 L 311.0,205.5 L 309.5,206.0 L 308.0,206.5 L 307.0,207.5 L 307.0,208.5 L 308.5,209.0 L 310.0,209.5 L 311.0,210.5 L 313.0,210.5 L 314.0,211.5 L 315.5,212.0 L 317.0,212.5 L 318.5,213.0 L 320.0,213.5 L 322.0,213.5 L 323.0,214.5 L 325.0,214.5 L 326.5,215.0 L 328.0,215.5 L 330.0,215.5 L 331.0,216.5 L 333.0,216.5 L 334.5,217.0 L 336.0,217.5 L 338.0,217.5 L 339.5,218.0 L 341.0,218.5 L 343.0,218.5 L 345.0,218.5 L 347.0,218.5 L 349.0,218.5 L 350.5,218.0 Z"/>
<path d="M 232.0,219.5 L 230.0,219.5 L 228.0,219.5 L 226.0,219.5 L 225.0,218.5 L 223.5,218.0 L 222.5,217.0 L 221.5,216.0 L 221.0,214.5 L 220.5,213.0 L 219.5,212.0 L 219.5,210.0 L 220.5,209.0 L 220.5,207.0 L 221.0,205.5 L 222.0,204.5 L 222.5,203.0 L 224.0,202.5 L 225.0,201.5 L 226.5,201.0 L 228.0,200.5 L 230.0,200.5 L 231.5,201.0 L 233.0,201.5 L 234.5,202.0 L 235.5,203.0 L 236.5,204.0 L 237.5,205.0 L 238.0,206.5 L 238.5,208.0 L 238.5,210.0 L 238.5,212.0 L 238.0,213.5 L 237.5,215.0 L 236.5,216.0 L 235.5,217.0 L 234.5,218.0 L 233.0,218.5 L 232.0,219.5 Z"/>
<path d="M 116.5,238.0 L 118.0,237.5 L 120.0,237.5 L 121.0,236.5 L 122.5,236.0 L 123.5,235.0 L 124.5,234.0 L 125.0,232.5 L 125.5,231.0 L 125.5,229.0 L 125.5,227.0 L 125.0,225.5 L 124.5,224.0 L 123.5,223.0 L 123.0,221.5 L 122.0,220.5 L 121.0,219.5 L 120.0,218.5 L 119.0,217.5 L 118.0,216.5 L 116.5,216.0 L 115.5,215.0 L 114.0,214.5 L 113.0,213.5 L 111.0,213.5 L 110.0,212.5 L 108.0,212.5 L 107.0,211.5 L 105.0,211.5 L 104.0,210.5 L 102.0,210.5 L 101.0,209.5 L 99.0,209.5 L 98.0,208.5 L 96.0,208.5 L 95.0,207.5 L 93.5,207.0 L 92.0,206.5 L 90.5,206.0 L 89.0,205.5 L 88.0,204.5 L 87.0,205.5 L 86.0,206.5 L 85.0,207.5 L 84.0,208.5 L 83.0,209.5 L 82.0,210.5 L 81.0,211.5 L 80.0,212.5 L 79.0,213.5 L 78.0,214.5 L 77.5,216.0 L 76.5,217.0 L 75.5,218.0 L 74.5,219.0 L 74.0,220.5 L 73.5,222.0 L 72.5,223.0 L 71.5,224.0 L 71.0,225.5 L 70.5,227.0 L 69.5,228.0 L 70.5,229.0 L 72.0,229.5 L 73.0,230.5 L 74.5,231.0 L 75.5,232.0 L 77.0,232.5 L 78.0,233.5 L 80.0,233.5 L 81.0,234.5 L 83.0,234.5 L 84.0,235.5 L 86.0,235.5 L 87.0,236.5 L 89.0,236.5 L 90.5,237.0 L 92.0,237.5 L 94.0,237.5 L 95.5,238.0 L 97.0,238.5 L 99.0,238.5 L 101.0,238.5 L 103.0,238.5 L 105.0,238.5 L 107.0,238.5 L 109.0,238.5 L 111.0,238.5 L 113.0,238.5 L 115.0,238.5 L 116.5,238.0 Z"/>
<path d="M 203.0,225.5 L 201.0,225.5 L 200.0,224.5 L 198.0,224.5 L 197.0,223.5 L 196.0,222.5 L 195.0,221.5 L 194.0,220.5 L 193.5,219.0 L 192.5,218.0 L 192.5,216.0 L 192.5,214.0 L 192.5,212.0 L 193.0,210.5 L 193.5,209.0 L 194.5,208.0 L 195.5,207.0 L 197.0,206.5 L 198.0,205.5 L 199.5,205.0 L 201.0,204.5 L 203.0,204.5 L 204.5,205.0 L 206.0,205.5 L 207.0,206.5 L 208.5,207.0 L 209.0,208.5 L 210.0,209.5 L 210.5,211.0 L 211.0,212.5 L 211.5,214.0 L 211.5,216.0 L 210.5,217.0 L 210.5,219.0 L 209.5,220.0 L 209.0,221.5 L 208.0,222.5 L 207.0,223.5 L 205.5,224.0 L 204.0,224.5 L 203.0,225.5 Z"/>
<path d="M 258.5,209.0 L 259.5,208.0 L 259.5,206.0 L 259.0,204.5 L 257.0,204.5 L 255.5,205.0 L 254.5,206.0 L 255.5,207.0 L 256.0,208.5 L 257.0,207.5 L 258.5,208.0 L 257.5,209.0 L 258.5,209.0 Z"/>
<path d="M 228.5,214.0 L 227.5,213.0 L 228.5,212.0 L 229.5,211.0 L 231.0,210.5 L 231.5,212.0 L 232.5,212.0 L 232.5,210.0 L 232.5,208.0 L 231.5,208.0 L 230.5,209.0 L 229.0,209.5 L 228.0,208.5 L 227.5,207.0 L 229.0,206.5 L 230.5,206.0 L 229.0,205.5 L 227.5,206.0 L 226.5,207.0 L 225.5,208.0 L 225.0,209.5 L 225.0,210.5 L 225.5,212.0 L 226.0,213.5 L 227.0,214.5 L 228.5,214.0 Z"/>
<path d="M 175.0,229.5 L 173.0,229.5 L 171.0,229.5 L 169.5,229.0 L 168.0,228.5 L 167.0,227.5 L 165.5,227.0 L 164.5,226.0 L 164.0,224.5 L 163.0,223.5 L 162.5,222.0 L 162.5,220.0 L 162.5,218.0 L 162.5,216.0 L 163.0,214.5 L 163.5,213.0 L 164.5,212.0 L 165.5,211.0 L 167.0,210.5 L 168.0,209.5 L 169.5,209.0 L 171.0,208.5 L 173.0,208.5 L 174.5,209.0 L 176.0,209.5 L 177.0,210.5 L 178.5,211.0 L 179.5,212.0 L 180.5,213.0 L 181.0,214.5 L 181.5,216.0 L 181.5,218.0 L 181.5,220.0 L 181.5,222.0 L 181.0,223.5 L 180.5,225.0 L 179.5,226.0 L 178.5,227.0 L 177.5,228.0 L 176.0,228.5 L 175.0,229.5 Z"/>
<path d="M 203.5,219.0 L 204.5,218.0 L 203.5,218.0 L 202.0,218.5 L 201.0,217.5 L 201.0,216.5 L 202.0,215.5 L 204.0,215.5 L 205.0,216.5 L 205.5,215.0 L 205.5,213.0 L 204.5,212.0 L 204.0,210.5 L 203.5,212.0 L 203.0,213.5 L 201.5,213.0 L 200.0,212.5 L 200.0,211.5 L 201.0,210.5 L 202.5,210.0 L 201.0,209.5 L 200.0,210.5 L 198.5,211.0 L 198.0,212.5 L 197.5,214.0 L 197.5,216.0 L 198.0,217.5 L 199.0,218.5 L 200.0,219.5 L 202.0,219.5 L 203.5,219.0 Z"/>
<path d="M 172.5,224.0 L 174.0,223.5 L 175.0,222.5 L 175.5,221.0 L 176.5,220.0 L 176.5,218.0 L 175.5,217.0 L 175.0,215.5 L 174.0,214.5 L 173.5,216.0 L 172.0,216.5 L 170.5,216.0 L 170.0,214.5 L 169.0,215.5 L 168.5,217.0 L 167.5,218.0 L 167.5,220.0 L 168.0,221.5 L 169.0,222.5 L 170.0,223.5 L 171.5,224.0 L 172.5,224.0 Z"/>
<path d="M 183.0,222.5 L 182.5,221.0 L 183.5,220.0 L 183.5,218.0 L 184.0,216.5 L 184.5,218.0 L 184.5,220.0 L 184.0,221.5 L 183.0,222.5 Z"/>
<path d="M 298.5,270.0 L 300.0,269.5 L 302.0,269.5 L 303.5,269.0 L 305.0,268.5 L 307.0,268.5 L 308.0,267.5 L 310.0,267.5 L 311.0,266.5 L 313.0,266.5 L 314.0,265.5 L 315.5,265.0 L 317.0,264.5 L 318.0,263.5 L 319.0,262.5 L 320.0,261.5 L 320.5,260.0 L 320.0,258.5 L 319.0,257.5 L 317.5,257.0 L 316.5,256.0 L 315.0,255.5 L 314.0,254.5 L 312.5,254.0 L 311.0,253.5 L 310.0,252.5 L 308.5,252.0 L 307.0,251.5 L 306.0,250.5 L 304.0,250.5 L 303.0,249.5 L 301.5,249.0 L 300.0,248.5 L 298.5,248.0 L 297.0,247.5 L 296.0,246.5 L 294.5,246.0 L 293.0,245.5 L 292.0,244.5 L 290.5,244.0 L 289.0,243.5 L 287.5,243.0 L 286.0,242.5 L 285.0,241.5 L 283.0,241.5 L 282.0,240.5 L 280.5,240.0 L 279.0,239.5 L 277.5,239.0 L 276.0,238.5 L 275.0,237.5 L 273.0,237.5 L 272.0,236.5 L 270.5,236.0 L 269.0,235.5 L 268.0,234.5 L 266.0,234.5 L 265.0,233.5 L 263.0,233.5 L 262.0,232.5 L 260.0,232.5 L 259.0,231.5 L 257.0,231.5 L 255.0,231.5 L 253.0,231.5 L 253.0,232.5 L 255.0,232.5 L 257.0,232.5 L 258.5,233.0 L 257.0,233.5 L 255.0,233.5 L 253.0,233.5 L 251.5,234.0 L 250.5,234.0 L 249.5,233.0 L 248.0,232.5 L 246.0,232.5 L 244.0,232.5 L 242.0,232.5 L 241.0,233.5 L 239.0,233.5 L 237.0,233.5 L 235.0,233.5 L 234.0,234.5 L 232.0,234.5 L 230.0,234.5 L 229.0,235.5 L 227.0,235.5 L 225.0,235.5 L 224.0,236.5 L 222.0,236.5 L 220.0,236.5 L 219.0,237.5 L 217.0,237.5 L 216.0,238.5 L 214.0,238.5 L 212.0,238.5 L 211.0,239.5 L 209.0,239.5 L 207.0,239.5 L 206.0,240.5 L 204.0,240.5 L 202.5,241.0 L 201.0,241.5 L 199.5,242.0 L 198.0,242.5 L 196.5,243.0 L 195.0,243.5 L 193.5,244.0 L 192.0,244.5 L 191.0,245.5 L 189.5,246.0 L 189.0,247.5 L 189.0,248.5 L 190.0,249.5 L 192.0,249.5 L 193.0,250.5 L 195.0,250.5 L 196.0,251.5 L 198.0,251.5 L 199.5,252.0 L 201.0,252.5 L 203.0,252.5 L 204.0,253.5 L 206.0,253.5 L 207.0,254.5 L 209.0,254.5 L 210.5,255.0 L 212.0,255.5 L 214.0,255.5 L 215.0,256.5 L 217.0,256.5 L 218.5,257.0 L 220.0,257.5 L 222.0,257.5 L 223.0,258.5 L 225.0,258.5 L 226.5,259.0 L 228.0,259.5 L 229.5,260.0 L 231.0,260.5 L 233.0,260.5 L 235.0,260.5 L 236.0,261.5 L 238.0,261.5 L 240.0,261.5 L 241.0,262.5 L 243.0,262.5 L 244.5,263.0 L 246.0,263.5 L 248.0,263.5 L 249.5,264.0 L 251.0,264.5 L 253.0,264.5 L 254.5,265.0 L 256.0,265.5 L 258.0,265.5 L 259.5,266.0 L 261.0,266.5 L 263.0,266.5 L 265.0,266.5 L 266.0,267.5 L 268.0,267.5 L 270.0,267.5 L 271.0,268.5 L 273.0,268.5 L 275.0,268.5 L 276.5,269.0 L 278.0,269.5 L 280.0,269.5 L 282.0,269.5 L 283.0,270.5 L 285.0,270.5 L 287.0,270.5 L 289.0,270.5 L 291.0,270.5 L 293.0,270.5 L 295.0,270.5 L 297.0,270.5 L 298.5,270.0 Z"/>
<path d="M 111.0,247.5 L 109.0,247.5 L 107.0,247.5 L 105.0,247.5 L 103.0,247.5 L 103.0,246.5 L 105.0,246.5 L 107.0,246.5 L 109.0,246.5 L 111.0,246.5 L 111.0,247.5 Z"/>
<path d="M 206.0,262.5 L 204.0,262.5 L 202.5,262.0 L 201.5,261.0 L 203.0,260.5 L 204.0,261.5 L 206.0,261.5 L 206.0,262.5 Z"/>
</g></svg>